<?xml version="1.0" encoding="UTF-8" standalone="no"?>
<!-- Created with Inkscape (http://www.inkscape.org/) -->

<svg
   width="40mm"
   height="40mm"
   viewBox="0 0 40 40"
   version="1.1"
   id="svg1"
   sodipodi:docname="flowers.svg"
   inkscape:version="1.4.2 (1:1.4.2+202505120737+ebf0e940d0)"
   xmlns:inkscape="http://www.inkscape.org/namespaces/inkscape"
   xmlns:sodipodi="http://sodipodi.sourceforge.net/DTD/sodipodi-0.dtd"
   xmlns="http://www.w3.org/2000/svg"
   xmlns:svg="http://www.w3.org/2000/svg">
  <sodipodi:namedview
     id="namedview1"
     pagecolor="#505050"
     bordercolor="#eeeeee"
     borderopacity="1"
     inkscape:showpageshadow="0"
     inkscape:pageopacity="0"
     inkscape:pagecheckerboard="0"
     inkscape:deskcolor="#505050"
     inkscape:document-units="mm"
     showguides="false"
     showgrid="false"
     inkscape:zoom="2.0000001"
     inkscape:cx="73.249996"
     inkscape:cy="236.74999"
     inkscape:window-width="1080"
     inkscape:window-height="1849"
     inkscape:window-x="0"
     inkscape:window-y="32"
     inkscape:window-maximized="1"
     inkscape:current-layer="layer1" />
  <defs
     id="defs1">
    <inkscape:path-effect
       effect="mirror_symmetry"
       start_point="173.79778,23.280206"
       end_point="173.79778,26.578391"
       center_point="173.79778,24.929299"
       id="path-effect76"
       is_visible="true"
       lpeversion="1.2"
       lpesatellites=""
       mode="free"
       discard_orig_path="false"
       fuse_paths="false"
       oposite_fuse="false"
       split_items="false"
       split_open="false"
       link_styles="false" />
    <inkscape:path-effect
       effect="mirror_symmetry"
       start_point="173.79778,23.280206"
       end_point="173.79778,26.578391"
       center_point="173.79778,24.929299"
       id="path-effect74"
       is_visible="true"
       lpeversion="1.2"
       lpesatellites=""
       mode="free"
       discard_orig_path="false"
       fuse_paths="false"
       oposite_fuse="false"
       split_items="false"
       split_open="false"
       link_styles="false" />
    <inkscape:path-effect
       effect="mirror_symmetry"
       start_point="173.79778,23.280206"
       end_point="173.79778,26.578391"
       center_point="173.79778,24.929299"
       id="path-effect72"
       is_visible="true"
       lpeversion="1.2"
       lpesatellites=""
       mode="free"
       discard_orig_path="false"
       fuse_paths="false"
       oposite_fuse="false"
       split_items="false"
       split_open="false"
       link_styles="false" />
    <inkscape:path-effect
       effect="mirror_symmetry"
       start_point="173.79778,23.280206"
       end_point="173.79778,26.578391"
       center_point="173.79778,24.929299"
       id="path-effect70"
       is_visible="true"
       lpeversion="1.2"
       lpesatellites=""
       mode="free"
       discard_orig_path="false"
       fuse_paths="false"
       oposite_fuse="false"
       split_items="false"
       split_open="false"
       link_styles="false" />
    <inkscape:path-effect
       effect="mirror_symmetry"
       start_point="108.85728,23.109294"
       end_point="108.85728,28.635487"
       center_point="108.85728,25.872391"
       id="path-effect68"
       is_visible="true"
       lpeversion="1.2"
       lpesatellites=""
       mode="free"
       discard_orig_path="false"
       fuse_paths="false"
       oposite_fuse="false"
       split_items="false"
       split_open="false"
       link_styles="false" />
    <inkscape:path-effect
       effect="mirror_symmetry"
       start_point="108.85728,23.109294"
       end_point="108.85728,28.635487"
       center_point="108.85728,25.872391"
       id="path-effect66"
       is_visible="true"
       lpeversion="1.2"
       lpesatellites=""
       mode="free"
       discard_orig_path="false"
       fuse_paths="false"
       oposite_fuse="false"
       split_items="false"
       split_open="false"
       link_styles="false" />
    <inkscape:path-effect
       effect="mirror_symmetry"
       start_point="108.85728,23.109294"
       end_point="108.85728,28.635487"
       center_point="108.85728,25.872391"
       id="path-effect64"
       is_visible="true"
       lpeversion="1.2"
       lpesatellites=""
       mode="free"
       discard_orig_path="false"
       fuse_paths="false"
       oposite_fuse="false"
       split_items="false"
       split_open="false"
       link_styles="false" />
    <inkscape:path-effect
       effect="mirror_symmetry"
       start_point="108.85728,23.109294"
       end_point="108.85728,28.635487"
       center_point="108.85728,25.872391"
       id="path-effect62"
       is_visible="true"
       lpeversion="1.2"
       lpesatellites=""
       mode="free"
       discard_orig_path="false"
       fuse_paths="false"
       oposite_fuse="false"
       split_items="false"
       split_open="false"
       link_styles="false" />
    <inkscape:path-effect
       effect="mirror_symmetry"
       start_point="108.85728,23.109294"
       end_point="108.85728,28.635487"
       center_point="108.85728,25.872391"
       id="path-effect60"
       is_visible="true"
       lpeversion="1.2"
       lpesatellites=""
       mode="free"
       discard_orig_path="false"
       fuse_paths="false"
       oposite_fuse="false"
       split_items="false"
       split_open="false"
       link_styles="false" />
    <inkscape:path-effect
       effect="mirror_symmetry"
       start_point="142.94194,32.856815"
       end_point="142.94194,57.616997"
       center_point="142.94194,45.236906"
       id="path-effect58"
       is_visible="true"
       lpeversion="1.2"
       lpesatellites=""
       mode="free"
       discard_orig_path="false"
       fuse_paths="false"
       oposite_fuse="false"
       split_items="false"
       split_open="false"
       link_styles="false" />
    <inkscape:path-effect
       effect="mirror_symmetry"
       start_point="142.94194,32.856815"
       end_point="142.94194,57.616997"
       center_point="142.94194,45.236906"
       id="path-effect56"
       is_visible="true"
       lpeversion="1.2"
       lpesatellites=""
       mode="free"
       discard_orig_path="false"
       fuse_paths="false"
       oposite_fuse="false"
       split_items="false"
       split_open="false"
       link_styles="false" />
    <inkscape:path-effect
       effect="mirror_symmetry"
       start_point="142.94194,32.856815"
       end_point="142.94194,57.616997"
       center_point="142.94194,45.236906"
       id="path-effect53"
       is_visible="true"
       lpeversion="1.2"
       lpesatellites=""
       mode="free"
       discard_orig_path="false"
       fuse_paths="false"
       oposite_fuse="false"
       split_items="false"
       split_open="false"
       link_styles="false" />
    <inkscape:path-effect
       effect="mirror_symmetry"
       start_point="142.94194,32.856815"
       end_point="142.94194,57.616997"
       center_point="142.94194,45.236906"
       id="path-effect49"
       is_visible="true"
       lpeversion="1.2"
       lpesatellites=""
       mode="free"
       discard_orig_path="false"
       fuse_paths="false"
       oposite_fuse="false"
       split_items="false"
       split_open="false"
       link_styles="false" />
    <inkscape:path-effect
       effect="mirror_symmetry"
       start_point="142.94194,32.856815"
       end_point="142.94194,57.616997"
       center_point="142.94194,45.236906"
       id="path-effect46"
       is_visible="true"
       lpeversion="1.2"
       lpesatellites=""
       mode="free"
       discard_orig_path="false"
       fuse_paths="false"
       oposite_fuse="false"
       split_items="false"
       split_open="false"
       link_styles="false" />
    <inkscape:path-effect
       effect="mirror_symmetry"
       start_point="173.79778,23.280206"
       end_point="173.79778,26.578391"
       center_point="173.79778,24.929299"
       id="path-effect44"
       is_visible="true"
       lpeversion="1.2"
       lpesatellites=""
       mode="free"
       discard_orig_path="false"
       fuse_paths="false"
       oposite_fuse="false"
       split_items="false"
       split_open="false"
       link_styles="false" />
    <inkscape:path-effect
       effect="mirror_symmetry"
       start_point="108.85728,23.109294"
       end_point="108.85728,28.635487"
       center_point="108.85728,25.872391"
       id="path-effect41"
       is_visible="true"
       lpeversion="1.2"
       lpesatellites=""
       mode="free"
       discard_orig_path="false"
       fuse_paths="false"
       oposite_fuse="false"
       split_items="false"
       split_open="false"
       link_styles="false" />
    <inkscape:path-effect
       effect="mirror_symmetry"
       start_point="173.79778,23.280206"
       end_point="173.79778,26.578391"
       center_point="173.79778,24.929299"
       id="path-effect3"
       is_visible="true"
       lpeversion="1.2"
       lpesatellites=""
       mode="free"
       discard_orig_path="false"
       fuse_paths="false"
       oposite_fuse="false"
       split_items="false"
       split_open="false"
       link_styles="false" />
    <inkscape:path-effect
       effect="mirror_symmetry"
       start_point="108.85728,23.109294"
       end_point="108.85728,28.635487"
       center_point="108.85728,25.872391"
       id="path-effect54"
       is_visible="true"
       lpeversion="1.2"
       lpesatellites=""
       mode="free"
       discard_orig_path="false"
       fuse_paths="false"
       oposite_fuse="false"
       split_items="false"
       split_open="false"
       link_styles="false" />
    <inkscape:path-effect
       effect="mirror_symmetry"
       start_point="108.85728,23.109294"
       end_point="108.85728,28.635487"
       center_point="108.85728,25.872391"
       id="path-effect52"
       is_visible="true"
       lpeversion="1.2"
       lpesatellites=""
       mode="free"
       discard_orig_path="false"
       fuse_paths="false"
       oposite_fuse="false"
       split_items="false"
       split_open="false"
       link_styles="false" />
    <inkscape:path-effect
       effect="mirror_symmetry"
       start_point="108.85728,23.109294"
       end_point="108.85728,28.635487"
       center_point="108.85728,25.872391"
       id="path-effect50"
       is_visible="true"
       lpeversion="1.2"
       lpesatellites=""
       mode="free"
       discard_orig_path="false"
       fuse_paths="false"
       oposite_fuse="false"
       split_items="false"
       split_open="false"
       link_styles="false" />
    <inkscape:path-effect
       effect="mirror_symmetry"
       start_point="108.85728,23.109294"
       end_point="108.85728,28.635487"
       center_point="108.85728,25.872391"
       id="path-effect48"
       is_visible="true"
       lpeversion="1.2"
       lpesatellites=""
       mode="free"
       discard_orig_path="false"
       fuse_paths="false"
       oposite_fuse="false"
       split_items="false"
       split_open="false"
       link_styles="false" />
    <inkscape:path-effect
       effect="mirror_symmetry"
       start_point="108.85728,23.109294"
       end_point="108.85728,28.635487"
       center_point="108.85728,25.872391"
       id="path-effect42"
       is_visible="true"
       lpeversion="1.2"
       lpesatellites=""
       mode="free"
       discard_orig_path="false"
       fuse_paths="false"
       oposite_fuse="false"
       split_items="false"
       split_open="false"
       link_styles="false" />
    <inkscape:path-effect
       effect="mirror_symmetry"
       start_point="142.94194,32.856815"
       end_point="142.94194,57.616997"
       center_point="142.94194,45.236906"
       id="path-effect40"
       is_visible="true"
       lpeversion="1.2"
       lpesatellites=""
       mode="free"
       discard_orig_path="false"
       fuse_paths="false"
       oposite_fuse="false"
       split_items="false"
       split_open="false"
       link_styles="false" />
    <inkscape:path-effect
       effect="mirror_symmetry"
       start_point="142.94194,32.856815"
       end_point="142.94194,57.616997"
       center_point="142.94194,45.236906"
       id="path-effect38"
       is_visible="true"
       lpeversion="1.2"
       lpesatellites=""
       mode="free"
       discard_orig_path="false"
       fuse_paths="false"
       oposite_fuse="false"
       split_items="false"
       split_open="false"
       link_styles="false" />
    <inkscape:path-effect
       effect="mirror_symmetry"
       start_point="142.94194,32.856815"
       end_point="142.94194,57.616997"
       center_point="142.94194,45.236906"
       id="path-effect26"
       is_visible="true"
       lpeversion="1.2"
       lpesatellites=""
       mode="free"
       discard_orig_path="false"
       fuse_paths="false"
       oposite_fuse="false"
       split_items="false"
       split_open="false"
       link_styles="false" />
    <inkscape:path-effect
       effect="mirror_symmetry"
       start_point="108.85728,23.109294"
       end_point="108.85728,28.635487"
       center_point="108.85728,25.872391"
       id="path-effect20"
       is_visible="true"
       lpeversion="1.2"
       lpesatellites=""
       mode="free"
       discard_orig_path="false"
       fuse_paths="false"
       oposite_fuse="false"
       split_items="false"
       split_open="false"
       link_styles="false" />
    <inkscape:path-effect
       effect="mirror_symmetry"
       start_point="108.85728,23.109294"
       end_point="108.85728,28.635487"
       center_point="108.85728,25.872391"
       id="path-effect2"
       is_visible="true"
       lpeversion="1.2"
       lpesatellites=""
       mode="free"
       discard_orig_path="false"
       fuse_paths="false"
       oposite_fuse="false"
       split_items="false"
       split_open="false"
       link_styles="false" />
    <inkscape:path-effect
       effect="mirror_symmetry"
       start_point="142.94194,32.856815"
       end_point="142.94194,57.616997"
       center_point="142.94194,45.236906"
       id="path-effect1"
       is_visible="true"
       lpeversion="1.2"
       lpesatellites=""
       mode="free"
       discard_orig_path="false"
       fuse_paths="false"
       oposite_fuse="false"
       split_items="false"
       split_open="false"
       link_styles="false" />
    <inkscape:path-effect
       effect="mirror_symmetry"
       start_point="108.85728,23.109294"
       end_point="108.85728,28.635487"
       center_point="108.85728,25.872391"
       id="path-effect42-7"
       is_visible="true"
       lpeversion="1.2"
       lpesatellites=""
       mode="free"
       discard_orig_path="false"
       fuse_paths="false"
       oposite_fuse="false"
       split_items="false"
       split_open="false"
       link_styles="false" />
    <inkscape:path-effect
       effect="mirror_symmetry"
       start_point="108.85728,23.109294"
       end_point="108.85728,28.635487"
       center_point="108.85728,25.872391"
       id="path-effect42-7-9"
       is_visible="true"
       lpeversion="1.2"
       lpesatellites=""
       mode="free"
       discard_orig_path="false"
       fuse_paths="false"
       oposite_fuse="false"
       split_items="false"
       split_open="false"
       link_styles="false" />
    <inkscape:path-effect
       effect="mirror_symmetry"
       start_point="108.85728,23.109294"
       end_point="108.85728,28.635487"
       center_point="108.85728,25.872391"
       id="path-effect48-1"
       is_visible="true"
       lpeversion="1.2"
       lpesatellites=""
       mode="free"
       discard_orig_path="false"
       fuse_paths="false"
       oposite_fuse="false"
       split_items="false"
       split_open="false"
       link_styles="false" />
    <inkscape:path-effect
       effect="mirror_symmetry"
       start_point="108.85728,23.109294"
       end_point="108.85728,28.635487"
       center_point="108.85728,25.872391"
       id="path-effect50-2"
       is_visible="true"
       lpeversion="1.2"
       lpesatellites=""
       mode="free"
       discard_orig_path="false"
       fuse_paths="false"
       oposite_fuse="false"
       split_items="false"
       split_open="false"
       link_styles="false" />
    <inkscape:path-effect
       effect="mirror_symmetry"
       start_point="108.85728,23.109294"
       end_point="108.85728,28.635487"
       center_point="108.85728,25.872391"
       id="path-effect52-7"
       is_visible="true"
       lpeversion="1.2"
       lpesatellites=""
       mode="free"
       discard_orig_path="false"
       fuse_paths="false"
       oposite_fuse="false"
       split_items="false"
       split_open="false"
       link_styles="false" />
    <inkscape:path-effect
       effect="mirror_symmetry"
       start_point="108.85728,23.109294"
       end_point="108.85728,28.635487"
       center_point="108.85728,25.872391"
       id="path-effect54-0"
       is_visible="true"
       lpeversion="1.2"
       lpesatellites=""
       mode="free"
       discard_orig_path="false"
       fuse_paths="false"
       oposite_fuse="false"
       split_items="false"
       split_open="false"
       link_styles="false" />
  </defs>
  <g
     inkscape:label="Layer 1"
     inkscape:groupmode="layer"
     id="layer1">
    <path
       style="opacity:1;fill:#000000;fill-opacity:0.12;stroke:none;stroke-width:0.0455004"
       d="m 37.127576,12.081651 c 0.08826,-0.02241 0.173445,-0.05217 0.248125,-0.07926 0.299138,-0.108499 0.755323,-0.288378 0.582145,-0.761505 -0.07743,-0.211533 -0.230954,-0.542019 -0.419687,-0.82119 0.325883,0.08679 0.689273,0.123132 0.914705,0.126831 0.503762,0.0083 0.523329,-0.482003 0.527618,-0.800182 0.0043,-0.318177 -0.002,-0.8088796 -0.505772,-0.8141846 -0.224813,-0.0024 -0.587751,0.0243 -0.915137,0.1017696 0.195949,-0.2734246 0.358463,-0.5989486 0.441628,-0.8078006 0.186389,-0.468078 -0.265276,-0.660568 -0.561253,-0.777417 -0.295981,-0.116849 -0.757236,-0.284958 -0.940861,0.184209 -0.08301,0.212075 -0.187916,0.567436 -0.230558,0.904905 -0.0073,0.05739 -0.01274,0.114423 -0.01646,0.170116 -0.03276,-0.0445 -0.06776,-0.08934 -0.104352,-0.133363 -0.217482,-0.261553 -0.49725,-0.50418 -0.681294,-0.638313 -0.407166,-0.296746 -0.705557,0.09304 -0.892218,0.350756 -0.08506,0.117448 -0.189058,0.265488 -0.238295,0.419716 l -0.558526,-0.223725 c -0.652598,-0.272844 -1.303294,-0.504406 -1.952703,-0.689272 0.462722,-0.132575 1.000173,-0.410059 1.352855,-0.760701 0.785741,-0.7812 0.5382,-1.463306 0.281473,-1.721527 -0.256726,-0.25822 -0.937258,-0.509683 -1.722999,0.271516 -0.537365,0.534259 -0.907341,1.499061 -0.851189,1.97638 -1.032361,-0.220147 -2.060622,-0.313754 -3.084801,-0.257087 0.426023,-0.309975 0.872787,-0.792389 1.105237,-1.281622 0.523538,-1.101875 0.01297,-1.716658 -0.349133,-1.888711 -0.362114,-0.172052 -1.160796,-0.179362 -1.684341,0.922519 -0.357855,0.753164 -0.382413,1.889524 -0.147011,2.36365 -1.108882,0.179141 -2.212793,0.545368 -3.311876,1.129403 0.198996,-0.503688 0.326642,-1.130213 0.283698,-1.665549 -0.106242,-1.324565 -0.922237,-1.626419 -1.357533,-1.591503 -0.435294,0.03492 -1.193051,0.463109 -1.086804,1.787668 0.06466,0.806072 0.544319,1.754707 0.987699,2.1782266 -0.604672,0.410149 -1.208172,0.889893 -1.809824,1.444501 -0.111007,0.102218 -0.117983,0.275124 -0.01557,0.385952 0.101952,0.110573 0.27415,0.117812 0.385022,0.01619 0.565239,-0.521042 1.128335,-0.973531 1.690287,-1.362101 -0.197665,0.550599 -0.06851,1.751107 0.377075,2.522878 0.539838,0.935014 1.213175,1.058995 1.649572,0.955546 0.100698,-0.02388 0.188657,-0.05966 0.25957,-0.100569 0.378192,-0.218348 0.878772,-0.930156 0.214366,-2.080944 -0.45935,-0.795613 -1.481058,-1.527806 -2.04817,-1.595878 1.245247,-0.7865186 2.485991,-1.2649316 3.732879,-1.4856586 -0.235827,0.505992 -0.308276,1.5127096 -0.06613,2.2350366 0.363484,1.084383 1.084026,1.229869 1.485891,1.138831 0.0268,-0.006 0.05198,-0.01301 0.07576,-0.02101 0.380111,-0.127411 0.960476,-0.676481 0.572754,-1.833154 -0.21346,-0.6368046 -0.755138,-1.3025896 -1.218367,-1.6306166 1.017789,-0.08669 2.041035,-0.01047 3.075741,0.20148 -0.31659,0.40581 -0.60674,1.2030796 -0.587785,1.8547016 0.03221,1.107531 0.699034,1.393761 1.063007,1.383173 0.04549,-0.0013 0.09553,-0.0076 0.148045,-0.01959 0.367625,-0.08431 0.860892,-0.453757 0.832707,-1.422847 -0.01544,-0.530695 -0.241298,-1.1460746 -0.508056,-1.5650866 0.66817,0.18719 1.341789,0.426925 2.022177,0.711536 l 0.0022,1.15e-4 1.796971,0.7196866 c -0.01038,0.0037 -0.02056,0.0073 -0.03095,0.01119 -0.318342,0.119857 -0.638965,0.304527 -0.82598,0.434502 -0.413723,0.287524 -0.143594,0.697164 0.03878,0.957928 0.182364,0.260765 0.474284,0.655441 0.886309,0.365478 0.186241,-0.131069 0.470123,-0.369116 0.691903,-0.627033 0.03284,-0.03819 0.06437,-0.07676 0.09427,-0.115411 0.0023,0.04781 0.0057,0.09633 0.01048,0.145377 0.03315,0.338541 0.128373,0.696778 0.205435,0.911083 0.12775,0.355448 0.421773,0.35709 0.686893,0.29007 z m -0.396427,-1.726029 -3.4e-4,9.1e-5 -6.59e-4,1.76e-4 c -0.01173,0.0026 -0.02352,0.005 -0.03538,0.0069 -0.0012,3.14e-4 -0.0022,5.99e-4 -0.0034,9.05e-4 -0.0016,1.88e-4 -0.0033,4.02e-4 -0.0049,6.1e-4 -0.02253,0.0045 -0.04529,0.0078 -0.06817,0.0099 -0.01258,9.9e-4 -0.02516,0.0018 -0.03778,0.002 -0.01236,5.16e-4 -0.02474,6.25e-4 -0.03712,4.21e-4 -0.02396,-6.21e-4 -0.04784,-0.0025 -0.07159,-0.0056 -0.0027,-2.75e-4 -0.0052,-4.7e-4 -0.0079,-7.89e-4 -0.182421,-0.02553 -0.345633,-0.12676 -0.44956,-0.27884 l -0.01345,0.0084 0.01234,-0.0098 c -0.02975,-0.04434 -0.05396,-0.09215 -0.0721,-0.142373 -0.0017,-0.0043 -0.0033,-0.0086 -0.0049,-0.01292 l 0.0082,0.0033 C 35.93904,9.922933 35.93424,9.907673 35.93,9.892233 35.88329,9.716774 35.91159,9.529793 36.00812,9.37601 l -0.0053,-0.0022 c 0.0074,-0.01162 0.01523,-0.02292 0.02338,-0.034 L 36.00565,9.32306 36.0277,9.33723 c 0.07672,-0.104497 0.182745,-0.183844 0.304631,-0.227987 0.01754,-0.0057 0.03533,-0.01071 0.05329,-0.01499 0.0027,-9.99e-4 0.0056,-0.002 0.0083,-0.0029 0.0018,-3.6e-4 0.0034,-6.9e-4 0.0052,-10e-4 0.01593,-0.0038 0.03198,-0.007 0.04813,-0.0097 0.01647,-0.0029 0.03302,-0.0051 0.04965,-0.0068 0.0088,-8.03e-4 0.01763,-0.0015 0.02647,-0.002 0.0265,-0.0016 0.05304,-0.0017 0.07953,-1.39e-4 l 7.49e-4,1.63e-4 3.44e-4,-9.2e-5 c 0.06137,0.0037 0.121921,0.01594 0.179864,0.03649 l 3.4e-4,-9.1e-5 0.0073,-0.0162 -0.0053,0.0171 c 0.200648,0.07325 0.352917,0.239816 0.407906,0.446217 0.09286,0.348821 -0.114292,0.706952 -0.462963,0.800377 z"
       id="path7" />
    <path
       style="opacity:1;fill:#000000;fill-opacity:0.12;stroke:none;stroke-width:0.0455004"
       d="m 11.483422,15.958937 c 0.03159,0.0014 0.06387,0.0011 0.0966,-0.0014 0.578143,-0.04422 1.086527,-0.351136 1.164133,-0.903947 0.05279,-0.376044 -0.356949,-1.086289 -0.406496,-1.36121 -0.0087,-0.04836 0.01343,-0.07022 0.03385,-0.08356 0.0055,-0.0027 0.01151,-0.0056 0.01798,-0.0074 0.0048,-0.0014 0.01009,-0.0022 0.01551,-0.0025 0.01626,-8.18e-4 0.03495,0.0044 0.05606,0.02221 0.213314,0.180374 0.623808,0.89033 0.975866,1.032634 0.517551,0.209198 1.037366,-0.07775 1.364735,-0.556329 0.29656,-0.433537 0.06099,-1.015002 0.06099,-1.015002 0,0 0.621425,-0.08661 0.848595,-0.560208 0.250778,-0.522797 0.239345,-1.116664 -0.200602,-1.460277 -0.299269,-0.233739 -1.119502,-0.234029 -1.382363,-0.32858 -0.04623,-0.01663 -0.05401,-0.04688 -0.05535,-0.07122 0.0014,-0.02435 0.0091,-0.05458 0.05535,-0.07122 0.262861,-0.09455 1.083097,-0.09484 1.382363,-0.32858 0.439947,-0.343614 0.451376,-0.937481 0.200602,-1.4602776 -0.227173,-0.473595 -0.848595,-0.56056 -0.848595,-0.56056 0,0 0.235568,-0.581112 -0.06099,-1.014648 -0.327365,-0.478575 -0.847186,-0.765881 -1.364735,-0.556683 -0.352058,0.142304 -0.762552,0.852613 -0.975868,1.032982 -0.03751,0.03172 -0.06745,0.02335 -0.0892,0.01234 -0.02041,-0.01333 -0.04291,-0.03518 -0.0342,-0.08355 0.04954,-0.27492 0.459284,-0.985518 0.406495,-1.361562 -0.07761,-0.552811 -0.585988,-0.859372 -1.164132,-0.903595 -0.523732,-0.04006 -0.909588,0.454442 -0.909588,0.454442 0,0 -0.385504,-0.494502 -0.909235,-0.454442 -0.578142,0.04422 -1.0868821,0.350784 -1.1644851,0.903595 -0.05279,0.376044 0.356948,1.086642 0.4064941,1.361562 0.0087,0.04836 -0.01343,0.07022 -0.03385,0.08355 -0.02176,0.01101 -0.05203,0.01939 -0.08955,-0.01234 -0.213312,-0.180369 -0.623456,-0.890678 -0.975515,-1.032982 -0.517551,-0.209198 -1.03772,0.07811 -1.365089,0.556683 -0.29656,0.433536 -0.06099,1.014648 -0.06099,1.014648 0,0 -0.621072,0.08696 -0.848244,0.56056 C 5.379191,9.324868 5.390624,9.918734 5.83057,10.262348 c 0.29927,0.233739 1.119148,0.234029 1.382011,0.32858 0.04622,0.01663 0.05436,0.04688 0.0557,0.07122 -0.0014,0.02435 -0.0095,0.05458 -0.0557,0.07122 -0.262863,0.09455 -1.082741,0.09484 -1.382011,0.32858 -0.439941,0.343614 -0.451372,0.93748 -0.2006,1.460277 0.227175,0.473595 0.848244,0.560208 0.848244,0.560208 0,0 -0.235566,0.581465 0.06099,1.015002 0.327369,0.478575 0.84754,0.765527 1.365088,0.556329 0.352059,-0.142304 0.7622,-0.85226 0.975515,-1.03263 0.03752,-0.03172 0.0678,-0.02335 0.08955,-0.01234 0.02041,0.01333 0.04256,0.03519 0.03384,0.08356 -0.04954,0.274922 -0.4592831,0.985167 -0.4064941,1.361211 0.0776,0.552811 0.5863431,0.859725 1.1644851,0.903948 0.523732,0.04006 0.909235,-0.454442 0.909235,-0.454442 0,0 0.339065,0.434524 0.812988,0.455852 z M 10.670434,12.981268 C 10.402152,12.993538 9.884382,12.819155 9.513,12.666791 9.195357,12.421347 8.7854569,12.060193 8.6619359,11.82172 8.5171739,11.595516 8.4093099,11.059979 8.3555679,10.662171 8.4093079,10.264361 8.5171719,9.728832 8.6619359,9.502623 8.7854549,9.264152 9.195359,8.9026444 9.513,8.6571994 c 0.37138,-0.152365 0.889149,-0.32639 1.157434,-0.314125 0.26828,-0.01227 0.786051,0.161761 1.157433,0.314125 0.317644,0.245445 0.727545,0.6069496 0.851065,0.8454236 0.144762,0.226205 0.252627,0.761741 0.306369,1.159548 -0.02687,0.198905 -0.06701,0.432218 -0.11881,0.644116 -0.0518,0.211898 -0.115176,0.402328 -0.187559,0.515433 -0.123518,0.238471 -0.533422,0.599627 -0.851065,0.845071 -0.371381,0.152365 -0.88915,0.326742 -1.157433,0.314477 z m 0,-0.937087 c 0.763253,-2.1e-5 1.381989,-0.618755 1.38201,-1.38201 -2.1e-5,-0.763254 -0.618757,-1.381988 -1.38201,-1.38201 -0.763254,2.2e-5 -1.38199,0.618756 -1.382011,1.38201 2.1e-5,0.763255 0.618757,1.381989 1.382011,1.38201 z"
       id="path1" />
    <path
       style="opacity:1;fill:#000000;fill-opacity:0.12;stroke:none;stroke-width:0.0455004"
       d="m 12.086592,37.157458 c 0.067,-0.265124 0.06538,-0.559147 -0.29007,-0.686893 -0.214305,-0.07706 -0.572542,-0.172285 -0.911083,-0.205435 -0.04906,-0.0048 -0.09757,-0.0082 -0.145377,-0.01048 0.03866,-0.0299 0.07722,-0.06143 0.115411,-0.09427 0.257917,-0.22178 0.495968,-0.50566 0.627034,-0.691903 0.289962,-0.412024 -0.104713,-0.703944 -0.365478,-0.886308 -0.260764,-0.182372 -0.670405,-0.4525 -0.957929,-0.03878 -0.129972,0.187017 -0.314645,0.507638 -0.434477,0.825987 -0.0039,0.01039 -0.0075,0.02057 -0.01119,0.03095 l -0.7196871,-1.796971 -1.15e-4,-0.0022 c -0.284612,-0.680388 -0.524346,-1.354007 -0.711535,-2.022178 0.419011,0.266757 1.0343911,0.492618 1.5650861,0.508056 0.969091,0.02818 1.338531,-0.465084 1.422847,-0.832709 0.012,-0.05251 0.01826,-0.102555 0.01959,-0.148045 0.01058,-0.363973 -0.275642,-1.030796 -1.383174,-1.063007 -0.651621,-0.01895 -1.4488911,0.271196 -1.8547001,0.587786 -0.211953,-1.034705 -0.288166,-2.057953 -0.201481,-3.075741 0.328027,0.463228 0.993813,1.004905 1.6306171,1.218367 1.156674,0.38772 1.705741,-0.192643 1.833154,-0.572754 0.008,-0.02377 0.01498,-0.04896 0.02101,-0.07577 0.09104,-0.401863 -0.05445,-1.122407 -1.138829,-1.485892 -0.722327,-0.242143 -1.7290461,-0.169691 -2.2350371,0.06614 0.220726,-1.24689 0.69914,-2.487634 1.4856591,-3.732879 0.06807,0.567112 0.800263,1.58882 1.595877,2.04817 1.150787,0.664404 1.862596,0.163824 2.080946,-0.214367 0.04093,-0.0709 0.07671,-0.158866 0.100578,-0.259567 0.103452,-0.436397 -0.02053,-1.109735 -0.955548,-1.649571 -0.771769,-0.44558 -1.972279,-0.574737 -2.522877,-0.377076 0.38857,-0.561953 0.841059,-1.125048 1.362102,-1.690287 0.101628,-0.110871 0.09439,-0.283069 -0.01619,-0.385022 -0.11082,-0.102422 -0.283726,-0.09545 -0.385944,0.01556 -0.554609,0.601653 -1.034352,1.205153 -1.444501,1.809824 -0.4235201,-0.443379 -1.3721551,-0.923037 -2.1782271,-0.987699 -1.32456,-0.106247 -1.752753,0.65151 -1.787668,1.086805 -0.03491,0.435296 0.266938,1.251291 1.591503,1.357532 0.535337,0.04294 1.16186,-0.0847 1.665549,-0.283698 -0.584036,1.099082 -0.950262,2.202995 -1.129403,3.311877 -0.474126,-0.235402 -1.610486,-0.210844 -2.363649,0.14701 -1.101881,0.523544 -1.094571,1.322227 -0.922521,1.684341 0.172053,0.362106 0.7868369,0.872671 1.888712,0.349133 0.489233,-0.23245 0.971647,-0.679215 1.281622,-1.105238 -0.05667,1.024179 0.03694,2.052442 0.257086,3.084801 -0.477318,-0.05615 -1.44212,0.313825 -1.976379,0.85119 -0.781199,0.78574 -0.529737,1.466273 -0.271516,1.723 0.25822,0.256727 0.940327,0.504267 1.721527,-0.281475 0.350642,-0.35268 0.628128,-0.890132 0.7607,-1.352854 0.184867,0.64941 0.416429,1.300106 0.689273,1.952703 l 0.223728,0.558525 c -0.154229,0.04924 -0.302271,0.15323 -0.419716,0.238294 -0.25771,0.186661 -0.647502,0.485053 -0.350756,0.892219 0.134133,0.184044 0.376761,0.463811 0.638312,0.681291 0.04402,0.03659 0.08887,0.07159 0.133364,0.104353 -0.05569,0.0037 -0.112722,0.0092 -0.170118,0.01646 -0.337468,0.04264 -0.692828,0.147544 -0.904904,0.23056 -0.469171,0.183622 -0.301063,0.644876 -0.184209,0.940859 0.11685,0.295974 0.309339,0.747642 0.777417,0.561255 0.208852,-0.08317 0.534376,-0.24568 0.8078011,-0.441629 -0.07747,0.327383 -0.1041371,0.690321 -0.1017681,0.915136 0.0053,0.503798 0.4960051,0.510061 0.8141831,0.505773 0.318177,-0.0043 0.808461,-0.02386 0.800182,-0.527618 -0.0037,-0.225431 -0.04004,-0.588823 -0.126831,-0.914706 0.27917,0.188736 0.609658,0.342256 0.82119,0.419688 0.473129,0.173175 0.652999,-0.28301 0.761505,-0.582145 0.02705,-0.07469 0.05689,-0.159859 0.07926,-0.248125 z m -1.725848,-0.397103 -9.1e-5,3.4e-4 -1.77e-4,6.59e-4 C 10.267046,37.110023 9.908919,37.317176 9.5601,37.224314 9.353686,37.169374 9.187127,37.017057 9.113883,36.816408 l -0.0171,0.0053 0.0162,-0.0073 9.1e-5,-3.4e-4 c -0.02055,-0.05794 -0.03283,-0.118491 -0.03648,-0.17986 l 9.2e-5,-3.4e-4 -1.64e-4,-7.51e-4 c -0.0016,-0.0265 -0.0015,-0.05305 1.4e-4,-0.07953 5.13e-4,-0.0089 0.0011,-0.01767 0.002,-0.02647 0.0017,-0.01662 0.0039,-0.03318 0.0068,-0.04965 0.0027,-0.01615 0.0058,-0.03223 0.0097,-0.04813 3.41e-4,-0.0018 6.67e-4,-0.0034 10e-4,-0.0052 9.54e-4,-0.0027 0.002,-0.0056 0.0029,-0.0083 0.0042,-0.01796 0.0093,-0.03574 0.01498,-0.05329 0.04414,-0.121886 0.123496,-0.227912 0.227987,-0.30463 l -0.01417,-0.02205 0.01675,0.02055 c 0.01109,-0.0081 0.02242,-0.01594 0.034,-0.02338 l 0.0022,0.0053 c 0.15377,-0.09651 0.34075,-0.124801 0.51621,-0.07809 0.01543,0.0043 0.0307,0.0091 0.04577,0.01444 l -0.0033,-0.0081 c 0.0043,0.0016 0.0086,0.0033 0.01292,0.0049 0.05022,0.01812 0.09803,0.04235 0.142372,0.07209 l 0.0098,-0.01234 -0.0084,0.01345 c 0.152078,0.103933 0.253313,0.26714 0.278839,0.449561 2.77e-4,0.0027 5.68e-4,0.0052 7.9e-4,0.0079 0.0032,0.02373 0.0051,0.04765 0.0056,0.07159 2.04e-4,0.01237 9.5e-5,0.02476 -4.21e-4,0.03712 -3.72e-4,0.01259 -0.0011,0.02519 -0.002,0.03778 -0.0021,0.02288 -0.0054,0.04563 -0.0099,0.06817 -1.75e-4,0.0016 -3.89e-4,0.0033 -6.08e-4,0.0049 -2.57e-4,9.67e-4 -5.42e-4,0.002 -8.02e-4,0.003 -0.002,0.01198 -0.0043,0.02387 -0.007,0.03573 z"
       id="path9" />
  </g>
</svg>
