<?xml version="1.0" encoding="UTF-8" standalone="no"?>
<!-- Created with Inkscape (http://www.inkscape.org/) -->

<svg
   width="40mm"
   height="40mm"
   viewBox="0 0 40 40"
   version="1.1"
   id="svg1"
   sodipodi:docname="flowers-flipped.svg"
   inkscape:version="1.4.3 (1:1.4.3+202512261034+0d15f75042)"
   xmlns:inkscape="http://www.inkscape.org/namespaces/inkscape"
   xmlns:sodipodi="http://sodipodi.sourceforge.net/DTD/sodipodi-0.dtd"
   xmlns="http://www.w3.org/2000/svg"
   xmlns:svg="http://www.w3.org/2000/svg">
  <sodipodi:namedview
     id="namedview1"
     pagecolor="#505050"
     bordercolor="#eeeeee"
     borderopacity="1"
     inkscape:showpageshadow="0"
     inkscape:pageopacity="0"
     inkscape:pagecheckerboard="0"
     inkscape:deskcolor="#505050"
     inkscape:document-units="mm"
     showguides="false"
     showgrid="false"
     inkscape:zoom="2.8284273"
     inkscape:cx="35.355337"
     inkscape:cy="63.816383"
     inkscape:window-width="1920"
     inkscape:window-height="1016"
     inkscape:window-x="0"
     inkscape:window-y="0"
     inkscape:window-maximized="1"
     inkscape:current-layer="layer1" />
  <defs
     id="defs1">
    <inkscape:path-effect
       effect="mirror_symmetry"
       start_point="173.79778,23.280206"
       end_point="173.79778,26.578391"
       center_point="173.79778,24.929299"
       id="path-effect76"
       is_visible="true"
       lpeversion="1.2"
       lpesatellites=""
       mode="free"
       discard_orig_path="false"
       fuse_paths="false"
       oposite_fuse="false"
       split_items="false"
       split_open="false"
       link_styles="false" />
    <inkscape:path-effect
       effect="mirror_symmetry"
       start_point="173.79778,23.280206"
       end_point="173.79778,26.578391"
       center_point="173.79778,24.929299"
       id="path-effect74"
       is_visible="true"
       lpeversion="1.2"
       lpesatellites=""
       mode="free"
       discard_orig_path="false"
       fuse_paths="false"
       oposite_fuse="false"
       split_items="false"
       split_open="false"
       link_styles="false" />
    <inkscape:path-effect
       effect="mirror_symmetry"
       start_point="173.79778,23.280206"
       end_point="173.79778,26.578391"
       center_point="173.79778,24.929299"
       id="path-effect72"
       is_visible="true"
       lpeversion="1.2"
       lpesatellites=""
       mode="free"
       discard_orig_path="false"
       fuse_paths="false"
       oposite_fuse="false"
       split_items="false"
       split_open="false"
       link_styles="false" />
    <inkscape:path-effect
       effect="mirror_symmetry"
       start_point="173.79778,23.280206"
       end_point="173.79778,26.578391"
       center_point="173.79778,24.929299"
       id="path-effect70"
       is_visible="true"
       lpeversion="1.2"
       lpesatellites=""
       mode="free"
       discard_orig_path="false"
       fuse_paths="false"
       oposite_fuse="false"
       split_items="false"
       split_open="false"
       link_styles="false" />
    <inkscape:path-effect
       effect="mirror_symmetry"
       start_point="108.85728,23.109294"
       end_point="108.85728,28.635487"
       center_point="108.85728,25.872391"
       id="path-effect68"
       is_visible="true"
       lpeversion="1.2"
       lpesatellites=""
       mode="free"
       discard_orig_path="false"
       fuse_paths="false"
       oposite_fuse="false"
       split_items="false"
       split_open="false"
       link_styles="false" />
    <inkscape:path-effect
       effect="mirror_symmetry"
       start_point="108.85728,23.109294"
       end_point="108.85728,28.635487"
       center_point="108.85728,25.872391"
       id="path-effect66"
       is_visible="true"
       lpeversion="1.2"
       lpesatellites=""
       mode="free"
       discard_orig_path="false"
       fuse_paths="false"
       oposite_fuse="false"
       split_items="false"
       split_open="false"
       link_styles="false" />
    <inkscape:path-effect
       effect="mirror_symmetry"
       start_point="108.85728,23.109294"
       end_point="108.85728,28.635487"
       center_point="108.85728,25.872391"
       id="path-effect64"
       is_visible="true"
       lpeversion="1.2"
       lpesatellites=""
       mode="free"
       discard_orig_path="false"
       fuse_paths="false"
       oposite_fuse="false"
       split_items="false"
       split_open="false"
       link_styles="false" />
    <inkscape:path-effect
       effect="mirror_symmetry"
       start_point="108.85728,23.109294"
       end_point="108.85728,28.635487"
       center_point="108.85728,25.872391"
       id="path-effect62"
       is_visible="true"
       lpeversion="1.2"
       lpesatellites=""
       mode="free"
       discard_orig_path="false"
       fuse_paths="false"
       oposite_fuse="false"
       split_items="false"
       split_open="false"
       link_styles="false" />
    <inkscape:path-effect
       effect="mirror_symmetry"
       start_point="108.85728,23.109294"
       end_point="108.85728,28.635487"
       center_point="108.85728,25.872391"
       id="path-effect60"
       is_visible="true"
       lpeversion="1.2"
       lpesatellites=""
       mode="free"
       discard_orig_path="false"
       fuse_paths="false"
       oposite_fuse="false"
       split_items="false"
       split_open="false"
       link_styles="false" />
    <inkscape:path-effect
       effect="mirror_symmetry"
       start_point="142.94194,32.856815"
       end_point="142.94194,57.616997"
       center_point="142.94194,45.236906"
       id="path-effect58"
       is_visible="true"
       lpeversion="1.2"
       lpesatellites=""
       mode="free"
       discard_orig_path="false"
       fuse_paths="false"
       oposite_fuse="false"
       split_items="false"
       split_open="false"
       link_styles="false" />
    <inkscape:path-effect
       effect="mirror_symmetry"
       start_point="142.94194,32.856815"
       end_point="142.94194,57.616997"
       center_point="142.94194,45.236906"
       id="path-effect56"
       is_visible="true"
       lpeversion="1.2"
       lpesatellites=""
       mode="free"
       discard_orig_path="false"
       fuse_paths="false"
       oposite_fuse="false"
       split_items="false"
       split_open="false"
       link_styles="false" />
    <inkscape:path-effect
       effect="mirror_symmetry"
       start_point="142.94194,32.856815"
       end_point="142.94194,57.616997"
       center_point="142.94194,45.236906"
       id="path-effect53"
       is_visible="true"
       lpeversion="1.2"
       lpesatellites=""
       mode="free"
       discard_orig_path="false"
       fuse_paths="false"
       oposite_fuse="false"
       split_items="false"
       split_open="false"
       link_styles="false" />
    <inkscape:path-effect
       effect="mirror_symmetry"
       start_point="142.94194,32.856815"
       end_point="142.94194,57.616997"
       center_point="142.94194,45.236906"
       id="path-effect49"
       is_visible="true"
       lpeversion="1.2"
       lpesatellites=""
       mode="free"
       discard_orig_path="false"
       fuse_paths="false"
       oposite_fuse="false"
       split_items="false"
       split_open="false"
       link_styles="false" />
    <inkscape:path-effect
       effect="mirror_symmetry"
       start_point="142.94194,32.856815"
       end_point="142.94194,57.616997"
       center_point="142.94194,45.236906"
       id="path-effect46"
       is_visible="true"
       lpeversion="1.2"
       lpesatellites=""
       mode="free"
       discard_orig_path="false"
       fuse_paths="false"
       oposite_fuse="false"
       split_items="false"
       split_open="false"
       link_styles="false" />
    <inkscape:path-effect
       effect="mirror_symmetry"
       start_point="173.79778,23.280206"
       end_point="173.79778,26.578391"
       center_point="173.79778,24.929299"
       id="path-effect44"
       is_visible="true"
       lpeversion="1.2"
       lpesatellites=""
       mode="free"
       discard_orig_path="false"
       fuse_paths="false"
       oposite_fuse="false"
       split_items="false"
       split_open="false"
       link_styles="false" />
    <inkscape:path-effect
       effect="mirror_symmetry"
       start_point="108.85728,23.109294"
       end_point="108.85728,28.635487"
       center_point="108.85728,25.872391"
       id="path-effect41"
       is_visible="true"
       lpeversion="1.2"
       lpesatellites=""
       mode="free"
       discard_orig_path="false"
       fuse_paths="false"
       oposite_fuse="false"
       split_items="false"
       split_open="false"
       link_styles="false" />
    <inkscape:path-effect
       effect="mirror_symmetry"
       start_point="173.79778,23.280206"
       end_point="173.79778,26.578391"
       center_point="173.79778,24.929299"
       id="path-effect3"
       is_visible="true"
       lpeversion="1.2"
       lpesatellites=""
       mode="free"
       discard_orig_path="false"
       fuse_paths="false"
       oposite_fuse="false"
       split_items="false"
       split_open="false"
       link_styles="false" />
    <inkscape:path-effect
       effect="mirror_symmetry"
       start_point="108.85728,23.109294"
       end_point="108.85728,28.635487"
       center_point="108.85728,25.872391"
       id="path-effect54"
       is_visible="true"
       lpeversion="1.2"
       lpesatellites=""
       mode="free"
       discard_orig_path="false"
       fuse_paths="false"
       oposite_fuse="false"
       split_items="false"
       split_open="false"
       link_styles="false" />
    <inkscape:path-effect
       effect="mirror_symmetry"
       start_point="108.85728,23.109294"
       end_point="108.85728,28.635487"
       center_point="108.85728,25.872391"
       id="path-effect52"
       is_visible="true"
       lpeversion="1.2"
       lpesatellites=""
       mode="free"
       discard_orig_path="false"
       fuse_paths="false"
       oposite_fuse="false"
       split_items="false"
       split_open="false"
       link_styles="false" />
    <inkscape:path-effect
       effect="mirror_symmetry"
       start_point="108.85728,23.109294"
       end_point="108.85728,28.635487"
       center_point="108.85728,25.872391"
       id="path-effect50"
       is_visible="true"
       lpeversion="1.2"
       lpesatellites=""
       mode="free"
       discard_orig_path="false"
       fuse_paths="false"
       oposite_fuse="false"
       split_items="false"
       split_open="false"
       link_styles="false" />
    <inkscape:path-effect
       effect="mirror_symmetry"
       start_point="108.85728,23.109294"
       end_point="108.85728,28.635487"
       center_point="108.85728,25.872391"
       id="path-effect48"
       is_visible="true"
       lpeversion="1.2"
       lpesatellites=""
       mode="free"
       discard_orig_path="false"
       fuse_paths="false"
       oposite_fuse="false"
       split_items="false"
       split_open="false"
       link_styles="false" />
    <inkscape:path-effect
       effect="mirror_symmetry"
       start_point="108.85728,23.109294"
       end_point="108.85728,28.635487"
       center_point="108.85728,25.872391"
       id="path-effect42"
       is_visible="true"
       lpeversion="1.2"
       lpesatellites=""
       mode="free"
       discard_orig_path="false"
       fuse_paths="false"
       oposite_fuse="false"
       split_items="false"
       split_open="false"
       link_styles="false" />
    <inkscape:path-effect
       effect="mirror_symmetry"
       start_point="142.94194,32.856815"
       end_point="142.94194,57.616997"
       center_point="142.94194,45.236906"
       id="path-effect40"
       is_visible="true"
       lpeversion="1.2"
       lpesatellites=""
       mode="free"
       discard_orig_path="false"
       fuse_paths="false"
       oposite_fuse="false"
       split_items="false"
       split_open="false"
       link_styles="false" />
    <inkscape:path-effect
       effect="mirror_symmetry"
       start_point="142.94194,32.856815"
       end_point="142.94194,57.616997"
       center_point="142.94194,45.236906"
       id="path-effect38"
       is_visible="true"
       lpeversion="1.2"
       lpesatellites=""
       mode="free"
       discard_orig_path="false"
       fuse_paths="false"
       oposite_fuse="false"
       split_items="false"
       split_open="false"
       link_styles="false" />
    <inkscape:path-effect
       effect="mirror_symmetry"
       start_point="142.94194,32.856815"
       end_point="142.94194,57.616997"
       center_point="142.94194,45.236906"
       id="path-effect26"
       is_visible="true"
       lpeversion="1.2"
       lpesatellites=""
       mode="free"
       discard_orig_path="false"
       fuse_paths="false"
       oposite_fuse="false"
       split_items="false"
       split_open="false"
       link_styles="false" />
    <inkscape:path-effect
       effect="mirror_symmetry"
       start_point="108.85728,23.109294"
       end_point="108.85728,28.635487"
       center_point="108.85728,25.872391"
       id="path-effect20"
       is_visible="true"
       lpeversion="1.2"
       lpesatellites=""
       mode="free"
       discard_orig_path="false"
       fuse_paths="false"
       oposite_fuse="false"
       split_items="false"
       split_open="false"
       link_styles="false" />
    <inkscape:path-effect
       effect="mirror_symmetry"
       start_point="108.85728,23.109294"
       end_point="108.85728,28.635487"
       center_point="108.85728,25.872391"
       id="path-effect2"
       is_visible="true"
       lpeversion="1.2"
       lpesatellites=""
       mode="free"
       discard_orig_path="false"
       fuse_paths="false"
       oposite_fuse="false"
       split_items="false"
       split_open="false"
       link_styles="false" />
    <inkscape:path-effect
       effect="mirror_symmetry"
       start_point="142.94194,32.856815"
       end_point="142.94194,57.616997"
       center_point="142.94194,45.236906"
       id="path-effect1"
       is_visible="true"
       lpeversion="1.2"
       lpesatellites=""
       mode="free"
       discard_orig_path="false"
       fuse_paths="false"
       oposite_fuse="false"
       split_items="false"
       split_open="false"
       link_styles="false" />
    <inkscape:path-effect
       effect="mirror_symmetry"
       start_point="108.85728,23.109294"
       end_point="108.85728,28.635487"
       center_point="108.85728,25.872391"
       id="path-effect42-7"
       is_visible="true"
       lpeversion="1.2"
       lpesatellites=""
       mode="free"
       discard_orig_path="false"
       fuse_paths="false"
       oposite_fuse="false"
       split_items="false"
       split_open="false"
       link_styles="false" />
    <inkscape:path-effect
       effect="mirror_symmetry"
       start_point="108.85728,23.109294"
       end_point="108.85728,28.635487"
       center_point="108.85728,25.872391"
       id="path-effect42-7-9"
       is_visible="true"
       lpeversion="1.2"
       lpesatellites=""
       mode="free"
       discard_orig_path="false"
       fuse_paths="false"
       oposite_fuse="false"
       split_items="false"
       split_open="false"
       link_styles="false" />
    <inkscape:path-effect
       effect="mirror_symmetry"
       start_point="108.85728,23.109294"
       end_point="108.85728,28.635487"
       center_point="108.85728,25.872391"
       id="path-effect48-1"
       is_visible="true"
       lpeversion="1.2"
       lpesatellites=""
       mode="free"
       discard_orig_path="false"
       fuse_paths="false"
       oposite_fuse="false"
       split_items="false"
       split_open="false"
       link_styles="false" />
    <inkscape:path-effect
       effect="mirror_symmetry"
       start_point="108.85728,23.109294"
       end_point="108.85728,28.635487"
       center_point="108.85728,25.872391"
       id="path-effect50-2"
       is_visible="true"
       lpeversion="1.2"
       lpesatellites=""
       mode="free"
       discard_orig_path="false"
       fuse_paths="false"
       oposite_fuse="false"
       split_items="false"
       split_open="false"
       link_styles="false" />
    <inkscape:path-effect
       effect="mirror_symmetry"
       start_point="108.85728,23.109294"
       end_point="108.85728,28.635487"
       center_point="108.85728,25.872391"
       id="path-effect52-7"
       is_visible="true"
       lpeversion="1.2"
       lpesatellites=""
       mode="free"
       discard_orig_path="false"
       fuse_paths="false"
       oposite_fuse="false"
       split_items="false"
       split_open="false"
       link_styles="false" />
    <inkscape:path-effect
       effect="mirror_symmetry"
       start_point="108.85728,23.109294"
       end_point="108.85728,28.635487"
       center_point="108.85728,25.872391"
       id="path-effect54-0"
       is_visible="true"
       lpeversion="1.2"
       lpesatellites=""
       mode="free"
       discard_orig_path="false"
       fuse_paths="false"
       oposite_fuse="false"
       split_items="false"
       split_open="false"
       link_styles="false" />
  </defs>
  <g
     inkscape:label="Layer 1"
     inkscape:groupmode="layer"
     id="layer1">
    <path
       style="opacity:1;fill:#000000;fill-opacity:0.60695875;stroke:none;stroke-width:0.0286844"
       d="m 15.029236,30.946011 c -0.05564,0.01413 -0.109344,0.03289 -0.156423,0.04997 -0.188584,0.0684 -0.476172,0.181799 -0.366997,0.480069 0.04881,0.133355 0.145598,0.3417 0.264579,0.517696 -0.205443,-0.05471 -0.434532,-0.07762 -0.576649,-0.07996 -0.317583,-0.0052 -0.329918,0.303865 -0.332622,0.504452 -0.0027,0.200585 0.0013,0.509935 0.31885,0.513279 0.141727,0.0015 0.37053,-0.01532 0.576922,-0.06416 -0.123531,0.172373 -0.225983,0.377591 -0.278412,0.509256 -0.117504,0.295086 0.167236,0.416436 0.353826,0.4901 0.186593,0.07366 0.477378,0.179644 0.593139,-0.116129 0.05233,-0.133697 0.118466,-0.357724 0.145349,-0.570472 0.0046,-0.03618 0.008,-0.07214 0.01038,-0.107245 0.02065,0.02805 0.04272,0.05632 0.06579,0.08408 0.137105,0.164889 0.313477,0.317846 0.429502,0.402407 0.256687,0.187075 0.444799,-0.05866 0.562474,-0.221125 0.05362,-0.07404 0.119186,-0.167369 0.150226,-0.264598 l 0.352107,0.141041 c 0.411412,0.172007 0.821624,0.317989 1.231026,0.434532 -0.29171,0.08358 -0.630531,0.25851 -0.852869,0.479563 -0.495348,0.492485 -0.339293,0.922499 -0.177447,1.085287 0.161846,0.162788 0.590868,0.321315 1.086216,-0.171169 0.338766,-0.336809 0.572007,-0.945041 0.536608,-1.245953 0.650822,0.138786 1.29906,0.197798 1.944725,0.162073 -0.268574,0.195415 -0.550224,0.49954 -0.696765,0.807963 -0.33005,0.694645 -0.0082,1.082218 0.220101,1.190684 0.228284,0.108465 0.73179,0.113073 1.061844,-0.581576 0.2256,-0.474811 0.241082,-1.191197 0.09268,-1.490096 0.699063,-0.112934 1.394993,-0.343812 2.087878,-0.712 -0.125451,0.317536 -0.205922,0.712511 -0.178849,1.049998 0.06698,0.835034 0.581398,1.025329 0.855818,1.003318 0.274419,-0.02202 0.752125,-0.291954 0.685145,-1.126985 -0.04076,-0.508165 -0.343151,-1.106205 -0.622667,-1.373201 0.381198,-0.258567 0.761658,-0.561008 1.140952,-0.910644 0.06998,-0.06444 0.07438,-0.173445 0.0098,-0.243313 -0.06427,-0.06971 -0.172831,-0.07427 -0.242727,-0.01021 -0.356338,0.328476 -0.711326,0.613734 -1.065593,0.858697 0.124612,-0.347109 0.04319,-1.103935 -0.237716,-1.590476 -0.340326,-0.589453 -0.764812,-0.667613 -1.039926,-0.602397 -0.06348,0.01505 -0.118933,0.03761 -0.163638,0.0634 -0.238421,0.137651 -0.553997,0.58639 -0.135141,1.311872 0.289584,0.501571 0.933691,0.963162 1.29121,1.006076 -0.78503,0.495838 -1.567222,0.79744 -2.353287,0.936591 0.14867,-0.318988 0.194344,-0.953645 0.04169,-1.409015 -0.229148,-0.683619 -0.683394,-0.775336 -0.936738,-0.717944 -0.0169,0.0038 -0.03277,0.0082 -0.04776,0.01325 -0.23963,0.08032 -0.605504,0.426468 -0.361076,1.15566 0.13457,0.401455 0.476055,0.821181 0.768085,1.027976 -0.641636,0.05465 -1.286713,0.0066 -1.939014,-0.127017 0.199585,-0.255832 0.382502,-0.758448 0.370553,-1.169244 -0.02031,-0.698212 -0.440687,-0.878657 -0.670143,-0.871982 -0.02868,8.19e-4 -0.06022,0.0048 -0.09333,0.01235 -0.231758,0.05315 -0.542725,0.286058 -0.524956,0.896993 0.0097,0.334561 0.152119,0.72251 0.320289,0.986664 -0.421228,-0.118008 -0.845892,-0.269142 -1.274823,-0.448567 l -0.0014,-7.3e-5 -1.13285,-0.453706 c 0.0065,-0.0023 0.01296,-0.0046 0.01951,-0.0071 0.20069,-0.07556 0.402817,-0.191981 0.520716,-0.27392 0.260819,-0.181261 0.09052,-0.439507 -0.02445,-0.603898 -0.114966,-0.164392 -0.298999,-0.413204 -0.558748,-0.230405 -0.117411,0.08263 -0.296376,0.232698 -0.436191,0.395295 -0.0207,0.02408 -0.04058,0.04839 -0.05943,0.07276 -0.0015,-0.03014 -0.0036,-0.06073 -0.0066,-0.09165 -0.0209,-0.213424 -0.08093,-0.439264 -0.12951,-0.574367 -0.08054,-0.224082 -0.265895,-0.225117 -0.433032,-0.182866 z m 0.249916,1.088125 2.14e-4,-5.7e-5 4.16e-4,-1.11e-4 c 0.0074,-0.0016 0.01483,-0.0032 0.0223,-0.0044 7.57e-4,-1.98e-4 0.0014,-3.77e-4 0.0021,-5.7e-4 10e-4,-1.19e-4 0.0021,-2.54e-4 0.0031,-3.85e-4 0.0142,-0.0028 0.02855,-0.0049 0.04298,-0.0062 0.0079,-6.24e-4 0.01586,-0.0011 0.02382,-0.0013 0.0078,-3.25e-4 0.0156,-3.94e-4 0.0234,-2.65e-4 0.01511,3.91e-4 0.03016,0.0016 0.04513,0.0035 0.0017,1.73e-4 0.0033,2.96e-4 0.005,4.97e-4 0.115002,0.01609 0.217895,0.07991 0.283412,0.175787 l 0.0085,-0.0053 -0.0078,0.0062 c 0.01875,0.02795 0.03402,0.05809 0.04545,0.08975 0.0011,0.0027 0.0021,0.0054 0.0031,0.0081 l -0.0052,-0.0021 c 0.0034,0.0095 0.0064,0.01912 0.0091,0.02886 0.02945,0.110613 0.01161,0.22849 -0.04925,0.325438 l 0.0033,0.0014 c -0.0047,0.0073 -0.0096,0.01445 -0.01474,0.02143 l 0.01296,0.01056 -0.0139,-0.0089 c -0.04837,0.06588 -0.115206,0.115899 -0.192046,0.143728 -0.01106,0.0036 -0.02227,0.0068 -0.0336,0.0095 -0.0017,6.29e-4 -0.0035,0.0013 -0.0052,0.0018 -0.0011,2.27e-4 -0.0021,4.35e-4 -0.0033,6.3e-4 -0.01004,0.0024 -0.02016,0.0044 -0.03034,0.0061 -0.01038,0.0018 -0.02082,0.0032 -0.0313,0.0043 -0.0055,5.06e-4 -0.01111,9.46e-4 -0.01669,0.0013 -0.01671,10e-4 -0.03344,0.0011 -0.05014,8.8e-5 l -4.72e-4,-1.03e-4 -2.17e-4,5.8e-5 c -0.03869,-0.0023 -0.07686,-0.01005 -0.11339,-0.023 l -2.14e-4,5.7e-5 -0.0046,0.01021 0.0033,-0.01078 c -0.126493,-0.04618 -0.222487,-0.151185 -0.257153,-0.281305 -0.05854,-0.219904 0.07205,-0.445678 0.291862,-0.504575 z"
       id="path7" />
    <path
       style="opacity:1;fill:#000000;fill-opacity:0.60695875;stroke:none;stroke-width:0.0286844"
       d="m 31.195862,28.501686 c -0.01992,-8.83e-4 -0.04027,-6.93e-4 -0.0609,8.83e-4 -0.364474,0.02788 -0.68497,0.221363 -0.733895,0.569867 -0.03328,0.237066 0.225029,0.68482 0.256264,0.858136 0.0055,0.03049 -0.0085,0.04427 -0.02134,0.05268 -0.0035,0.0017 -0.0073,0.0035 -0.01133,0.0047 -0.003,8.83e-4 -0.0064,0.0014 -0.0098,0.0016 -0.01025,5.15e-4 -0.02203,-0.0028 -0.03534,-0.014 -0.134478,-0.113712 -0.393262,-0.561283 -0.615207,-0.650995 -0.326275,-0.131883 -0.653978,0.04902 -0.860358,0.350722 -0.186958,0.273311 -0.03845,0.639879 -0.03845,0.639879 0,0 -0.391759,0.0546 -0.534972,0.353167 -0.158096,0.329583 -0.150888,0.703969 0.126464,0.92059 0.188665,0.147354 0.705758,0.147537 0.871471,0.207144 0.02914,0.01048 0.03405,0.02955 0.03489,0.0449 -8.83e-4,0.01535 -0.0057,0.03441 -0.03489,0.0449 -0.165713,0.05961 -0.682808,0.05979 -0.871471,0.207144 -0.277352,0.216622 -0.284557,0.591009 -0.126464,0.920591 0.143215,0.298565 0.534972,0.353389 0.534972,0.353389 0,0 -0.148507,0.366346 0.03845,0.639656 0.206378,0.301704 0.534084,0.482828 0.860358,0.350945 0.221945,-0.08971 0.480729,-0.537506 0.615208,-0.651214 0.02365,-0.02 0.04252,-0.01472 0.05623,-0.0078 0.01287,0.0084 0.02705,0.02218 0.02156,0.05267 -0.03123,0.173316 -0.289542,0.621292 -0.256263,0.858358 0.04893,0.348504 0.36942,0.541767 0.733894,0.569646 0.330172,0.02526 0.573424,-0.28649 0.573424,-0.28649 0,0 0.24303,0.311745 0.573201,0.28649 0.364473,-0.02788 0.685194,-0.221142 0.734117,-0.569646 0.03328,-0.237066 -0.225028,-0.685042 -0.256263,-0.858358 -0.0055,-0.03049 0.0085,-0.04427 0.02134,-0.05267 0.01372,-0.0069 0.0328,-0.01222 0.05645,0.0078 0.134477,0.113708 0.39304,0.561503 0.614986,0.651214 0.326275,0.131883 0.654201,-0.04924 0.860581,-0.350945 0.186958,-0.27331 0.03845,-0.639656 0.03845,-0.639656 0,0 0.391537,-0.05482 0.534751,-0.353389 0.158095,-0.329583 0.150887,-0.703969 -0.126464,-0.920591 -0.188666,-0.147354 -0.705535,-0.147537 -0.871249,-0.207144 -0.02914,-0.01048 -0.03427,-0.02955 -0.03511,-0.0449 8.83e-4,-0.01535 0.006,-0.03441 0.03511,-0.0449 0.165714,-0.05961 0.682583,-0.05979 0.871249,-0.207144 0.277348,-0.216621 0.284555,-0.591007 0.126463,-0.92059 -0.143216,-0.298564 -0.534752,-0.353167 -0.534752,-0.353167 0,0 0.148506,-0.366568 -0.03845,-0.639879 -0.206381,-0.301704 -0.534308,-0.482605 -0.860581,-0.350722 -0.221946,0.08971 -0.480507,0.537283 -0.614986,0.650992 -0.02365,0.02 -0.04274,0.01472 -0.05645,0.0078 -0.01287,-0.0084 -0.02683,-0.02219 -0.02133,-0.05268 0.03123,-0.173317 0.289542,-0.621071 0.256262,-0.858137 -0.04892,-0.348504 -0.369643,-0.541989 -0.734116,-0.569868 -0.330172,-0.02525 -0.573201,0.28649 -0.573201,0.28649 0,0 -0.213754,-0.273934 -0.512526,-0.287379 z m 0.512526,1.877187 c 0.16913,-0.0077 0.495544,0.102199 0.729671,0.198253 0.200249,0.154733 0.458659,0.382412 0.536529,0.532751 0.09126,0.142604 0.159261,0.480218 0.193141,0.731004 -0.03388,0.250788 -0.101879,0.588397 -0.193141,0.731004 -0.07787,0.150338 -0.336281,0.37824 -0.536529,0.532974 -0.234126,0.09605 -0.560539,0.205763 -0.729671,0.198031 -0.16913,0.0077 -0.495544,-0.101978 -0.729671,-0.198031 -0.20025,-0.154734 -0.45866,-0.382635 -0.53653,-0.532974 -0.09126,-0.142604 -0.159261,-0.480218 -0.193141,-0.731004 0.01694,-0.125394 0.04224,-0.272479 0.0749,-0.406064 0.03266,-0.133585 0.07261,-0.253637 0.118241,-0.32494 0.07787,-0.150338 0.336281,-0.378018 0.53653,-0.532751 0.234127,-0.09605 0.560539,-0.205985 0.729671,-0.198253 z m 0,0.590759 c -0.481172,1.4e-5 -0.871236,0.390077 -0.871249,0.871249 1.3e-5,0.481172 0.390077,0.871235 0.871249,0.871249 0.481171,-1.4e-5 0.871236,-0.390077 0.871249,-0.871249 -1.3e-5,-0.481172 -0.390078,-0.871235 -0.871249,-0.871249 z"
       id="path1" />
    <path
       style="opacity:1;fill:#000000;fill-opacity:0.60695875;stroke:none;stroke-width:0.0286844"
       d="m 30.815611,15.137682 c -0.04224,0.16714 -0.04122,0.352499 0.182866,0.433032 0.135103,0.04858 0.360943,0.108613 0.574367,0.129511 0.03093,0.003 0.06151,0.0052 0.09165,0.0066 -0.02437,0.01885 -0.04868,0.03873 -0.07276,0.05943 -0.162596,0.139815 -0.312669,0.318779 -0.395296,0.43619 -0.182798,0.259749 0.06601,0.443782 0.230406,0.558748 0.164391,0.114971 0.422637,0.285266 0.603899,0.02445 0.08194,-0.1179 0.198359,-0.320026 0.273903,-0.52072 0.0025,-0.0066 0.0047,-0.01297 0.0071,-0.01951 l 0.453706,1.132849 7.2e-5,0.0014 c 0.179426,0.428931 0.330559,0.853595 0.448567,1.274825 -0.264153,-0.16817 -0.652102,-0.310557 -0.986664,-0.32029 -0.610935,-0.01777 -0.843838,0.293199 -0.896993,0.524958 -0.0076,0.0331 -0.01151,0.06465 -0.01235,0.09333 -0.0067,0.229456 0.173771,0.649836 0.871983,0.670142 0.410796,0.01195 0.913412,-0.170968 1.169243,-0.370553 0.133619,0.6523 0.181666,1.297378 0.127017,1.939013 -0.206795,-0.292028 -0.626521,-0.633513 -1.027976,-0.768084 -0.729192,-0.244427 -1.075335,0.121446 -1.155659,0.361076 -0.005,0.01498 -0.0094,0.03087 -0.01325,0.04777 -0.05739,0.253343 0.03433,0.70759 0.717942,0.936738 0.45537,0.152653 1.090028,0.106977 1.409015,-0.0417 -0.13915,0.786067 -0.440753,1.568258 -0.936591,2.353288 -0.04291,-0.35752 -0.504503,-1.001627 -1.006075,-1.291211 -0.725481,-0.418854 -1.174221,-0.103278 -1.311874,0.135142 -0.0258,0.0447 -0.04836,0.100152 -0.06341,0.163636 -0.06522,0.275114 0.01294,0.699601 0.602398,1.039925 0.48654,0.280904 1.243367,0.362327 1.590476,0.237717 -0.244963,0.354268 -0.530222,0.709255 -0.858698,1.065594 -0.06407,0.0699 -0.05951,0.178452 0.01021,0.242726 0.06986,0.06457 0.178867,0.06017 0.243307,-0.0098 0.349638,-0.379295 0.652078,-0.759754 0.910645,-1.140952 0.266996,0.279516 0.865036,0.581903 1.373201,0.622667 0.835031,0.06698 1.104973,-0.410726 1.126985,-0.685145 0.02201,-0.27442 -0.168284,-0.788841 -1.003318,-0.855818 -0.337488,-0.02707 -0.732462,0.0534 -1.049998,0.17885 0.368189,-0.692885 0.599066,-1.388816 0.712,-2.087879 0.298899,0.148403 1.015285,0.132921 1.490095,-0.09268 0.69465,-0.330054 0.690041,-0.83356 0.581577,-1.061845 -0.108466,-0.228279 -0.496039,-0.550151 -1.190685,-0.220101 -0.308423,0.146542 -0.612547,0.428192 -0.807962,0.696766 0.03573,-0.645665 -0.02329,-1.293904 -0.162072,-1.944725 0.300911,0.0354 0.909143,-0.197842 1.245952,-0.536609 0.492484,-0.495347 0.333957,-0.924369 0.171169,-1.086216 -0.162787,-0.161846 -0.592802,-0.3179 -1.085287,0.177448 -0.221053,0.222337 -0.395986,0.561158 -0.479562,0.852868 -0.116544,-0.409402 -0.262526,-0.819614 -0.434533,-1.231025 l -0.141043,-0.352107 c 0.09723,-0.03104 0.190559,-0.0966 0.264598,-0.150225 0.162466,-0.117675 0.4082,-0.305788 0.221125,-0.562474 -0.08456,-0.116026 -0.237519,-0.292397 -0.402406,-0.429501 -0.02775,-0.02307 -0.05603,-0.04513 -0.08408,-0.06579 0.03511,-0.0023 0.07106,-0.0058 0.107246,-0.01038 0.212747,-0.02688 0.436774,-0.09301 0.570471,-0.14535 0.295776,-0.115759 0.189797,-0.406544 0.11613,-0.593138 -0.07367,-0.186588 -0.195014,-0.471329 -0.490101,-0.353827 -0.131665,0.05243 -0.336882,0.154882 -0.509255,0.278413 0.04884,-0.20639 0.06565,-0.435194 0.06416,-0.576922 -0.0033,-0.317605 -0.312692,-0.321553 -0.513279,-0.31885 -0.200585,0.0027 -0.509671,0.01504 -0.504452,0.332622 0.0023,0.142116 0.02524,0.371206 0.07996,0.57665 -0.175994,-0.118983 -0.384341,-0.215766 -0.517695,-0.26458 -0.298271,-0.109174 -0.411665,0.178415 -0.48007,0.366996 -0.01705,0.04709 -0.03586,0.100779 -0.04997,0.156424 z m 1.088012,0.250343 5.7e-5,-2.15e-4 1.12e-4,-4.15e-4 c 0.0589,-0.219809 0.284671,-0.350402 0.504574,-0.29186 0.130128,0.03463 0.23513,0.130659 0.281305,0.257153 l 0.01078,-0.0033 -0.01021,0.0046 -5.7e-5,2.15e-4 c 0.01295,0.03653 0.0207,0.0747 0.023,0.113387 l -5.8e-5,2.15e-4 1.03e-4,4.73e-4 c 0.001,0.01671 9.46e-4,0.03344 -8.8e-5,0.05014 -3.24e-4,0.0056 -6.94e-4,0.01114 -0.0013,0.01669 -0.0011,0.01048 -0.0025,0.02092 -0.0043,0.0313 -0.0017,0.01018 -0.0037,0.02032 -0.0061,0.03034 -2.15e-4,0.0011 -4.21e-4,0.0021 -6.3e-4,0.0033 -6.02e-4,0.0017 -0.0013,0.0035 -0.0018,0.0052 -0.0026,0.01132 -0.0059,0.02253 -0.0094,0.0336 -0.02783,0.07684 -0.07785,0.143681 -0.143728,0.192046 l 0.0089,0.0139 -0.01056,-0.01295 c -0.007,0.0051 -0.01413,0.01005 -0.02143,0.01474 l -0.0014,-0.0033 c -0.09694,0.06084 -0.214816,0.07868 -0.32543,0.04923 -0.0097,-0.0027 -0.01935,-0.0057 -0.02885,-0.0091 l 0.0021,0.0051 c -0.0027,-0.001 -0.0054,-0.0021 -0.0081,-0.0031 -0.03166,-0.01142 -0.0618,-0.0267 -0.08975,-0.04545 l -0.0062,0.0078 0.0053,-0.0085 c -0.09587,-0.06552 -0.159694,-0.168411 -0.175786,-0.283413 -1.75e-4,-0.0017 -3.58e-4,-0.0033 -4.98e-4,-0.005 -0.002,-0.01496 -0.0032,-0.03004 -0.0035,-0.04513 -1.29e-4,-0.0078 -6e-5,-0.01561 2.65e-4,-0.0234 2.34e-4,-0.0079 6.93e-4,-0.01588 0.0013,-0.02382 0.0013,-0.01442 0.0034,-0.02877 0.0062,-0.04298 1.1e-4,-10e-4 2.45e-4,-0.0021 3.83e-4,-0.0031 1.62e-4,-6.09e-4 3.42e-4,-0.0013 5.06e-4,-0.0019 0.0013,-0.0076 0.0027,-0.01505 0.0044,-0.02252 z"
       id="path9" />
  </g>
</svg>
