<?xml version="1.0" encoding="UTF-8" standalone="no"?>
<!-- Created with Inkscape (http://www.inkscape.org/) -->

<svg
   width="40mm"
   height="40mm"
   viewBox="0 0 40 40"
   version="1.1"
   id="svg1"
   sodipodi:docname="flowers.svg"
   inkscape:version="1.4.3 (1:1.4.3+202512261034+0d15f75042)"
   xmlns:inkscape="http://www.inkscape.org/namespaces/inkscape"
   xmlns:sodipodi="http://sodipodi.sourceforge.net/DTD/sodipodi-0.dtd"
   xmlns="http://www.w3.org/2000/svg"
   xmlns:svg="http://www.w3.org/2000/svg">
  <sodipodi:namedview
     id="namedview1"
     pagecolor="#505050"
     bordercolor="#eeeeee"
     borderopacity="1"
     inkscape:showpageshadow="0"
     inkscape:pageopacity="0"
     inkscape:pagecheckerboard="0"
     inkscape:deskcolor="#505050"
     inkscape:document-units="mm"
     showguides="false"
     showgrid="false"
     inkscape:zoom="2.0000001"
     inkscape:cx="72.999996"
     inkscape:cy="76.749996"
     inkscape:window-width="1920"
     inkscape:window-height="1016"
     inkscape:window-x="0"
     inkscape:window-y="0"
     inkscape:window-maximized="1"
     inkscape:current-layer="layer1" />
  <defs
     id="defs1">
    <inkscape:path-effect
       effect="mirror_symmetry"
       start_point="173.79778,23.280206"
       end_point="173.79778,26.578391"
       center_point="173.79778,24.929299"
       id="path-effect76"
       is_visible="true"
       lpeversion="1.2"
       lpesatellites=""
       mode="free"
       discard_orig_path="false"
       fuse_paths="false"
       oposite_fuse="false"
       split_items="false"
       split_open="false"
       link_styles="false" />
    <inkscape:path-effect
       effect="mirror_symmetry"
       start_point="173.79778,23.280206"
       end_point="173.79778,26.578391"
       center_point="173.79778,24.929299"
       id="path-effect74"
       is_visible="true"
       lpeversion="1.2"
       lpesatellites=""
       mode="free"
       discard_orig_path="false"
       fuse_paths="false"
       oposite_fuse="false"
       split_items="false"
       split_open="false"
       link_styles="false" />
    <inkscape:path-effect
       effect="mirror_symmetry"
       start_point="173.79778,23.280206"
       end_point="173.79778,26.578391"
       center_point="173.79778,24.929299"
       id="path-effect72"
       is_visible="true"
       lpeversion="1.2"
       lpesatellites=""
       mode="free"
       discard_orig_path="false"
       fuse_paths="false"
       oposite_fuse="false"
       split_items="false"
       split_open="false"
       link_styles="false" />
    <inkscape:path-effect
       effect="mirror_symmetry"
       start_point="173.79778,23.280206"
       end_point="173.79778,26.578391"
       center_point="173.79778,24.929299"
       id="path-effect70"
       is_visible="true"
       lpeversion="1.2"
       lpesatellites=""
       mode="free"
       discard_orig_path="false"
       fuse_paths="false"
       oposite_fuse="false"
       split_items="false"
       split_open="false"
       link_styles="false" />
    <inkscape:path-effect
       effect="mirror_symmetry"
       start_point="108.85728,23.109294"
       end_point="108.85728,28.635487"
       center_point="108.85728,25.872391"
       id="path-effect68"
       is_visible="true"
       lpeversion="1.2"
       lpesatellites=""
       mode="free"
       discard_orig_path="false"
       fuse_paths="false"
       oposite_fuse="false"
       split_items="false"
       split_open="false"
       link_styles="false" />
    <inkscape:path-effect
       effect="mirror_symmetry"
       start_point="108.85728,23.109294"
       end_point="108.85728,28.635487"
       center_point="108.85728,25.872391"
       id="path-effect66"
       is_visible="true"
       lpeversion="1.2"
       lpesatellites=""
       mode="free"
       discard_orig_path="false"
       fuse_paths="false"
       oposite_fuse="false"
       split_items="false"
       split_open="false"
       link_styles="false" />
    <inkscape:path-effect
       effect="mirror_symmetry"
       start_point="108.85728,23.109294"
       end_point="108.85728,28.635487"
       center_point="108.85728,25.872391"
       id="path-effect64"
       is_visible="true"
       lpeversion="1.2"
       lpesatellites=""
       mode="free"
       discard_orig_path="false"
       fuse_paths="false"
       oposite_fuse="false"
       split_items="false"
       split_open="false"
       link_styles="false" />
    <inkscape:path-effect
       effect="mirror_symmetry"
       start_point="108.85728,23.109294"
       end_point="108.85728,28.635487"
       center_point="108.85728,25.872391"
       id="path-effect62"
       is_visible="true"
       lpeversion="1.2"
       lpesatellites=""
       mode="free"
       discard_orig_path="false"
       fuse_paths="false"
       oposite_fuse="false"
       split_items="false"
       split_open="false"
       link_styles="false" />
    <inkscape:path-effect
       effect="mirror_symmetry"
       start_point="108.85728,23.109294"
       end_point="108.85728,28.635487"
       center_point="108.85728,25.872391"
       id="path-effect60"
       is_visible="true"
       lpeversion="1.2"
       lpesatellites=""
       mode="free"
       discard_orig_path="false"
       fuse_paths="false"
       oposite_fuse="false"
       split_items="false"
       split_open="false"
       link_styles="false" />
    <inkscape:path-effect
       effect="mirror_symmetry"
       start_point="142.94194,32.856815"
       end_point="142.94194,57.616997"
       center_point="142.94194,45.236906"
       id="path-effect58"
       is_visible="true"
       lpeversion="1.2"
       lpesatellites=""
       mode="free"
       discard_orig_path="false"
       fuse_paths="false"
       oposite_fuse="false"
       split_items="false"
       split_open="false"
       link_styles="false" />
    <inkscape:path-effect
       effect="mirror_symmetry"
       start_point="142.94194,32.856815"
       end_point="142.94194,57.616997"
       center_point="142.94194,45.236906"
       id="path-effect56"
       is_visible="true"
       lpeversion="1.2"
       lpesatellites=""
       mode="free"
       discard_orig_path="false"
       fuse_paths="false"
       oposite_fuse="false"
       split_items="false"
       split_open="false"
       link_styles="false" />
    <inkscape:path-effect
       effect="mirror_symmetry"
       start_point="142.94194,32.856815"
       end_point="142.94194,57.616997"
       center_point="142.94194,45.236906"
       id="path-effect53"
       is_visible="true"
       lpeversion="1.2"
       lpesatellites=""
       mode="free"
       discard_orig_path="false"
       fuse_paths="false"
       oposite_fuse="false"
       split_items="false"
       split_open="false"
       link_styles="false" />
    <inkscape:path-effect
       effect="mirror_symmetry"
       start_point="142.94194,32.856815"
       end_point="142.94194,57.616997"
       center_point="142.94194,45.236906"
       id="path-effect49"
       is_visible="true"
       lpeversion="1.2"
       lpesatellites=""
       mode="free"
       discard_orig_path="false"
       fuse_paths="false"
       oposite_fuse="false"
       split_items="false"
       split_open="false"
       link_styles="false" />
    <inkscape:path-effect
       effect="mirror_symmetry"
       start_point="142.94194,32.856815"
       end_point="142.94194,57.616997"
       center_point="142.94194,45.236906"
       id="path-effect46"
       is_visible="true"
       lpeversion="1.2"
       lpesatellites=""
       mode="free"
       discard_orig_path="false"
       fuse_paths="false"
       oposite_fuse="false"
       split_items="false"
       split_open="false"
       link_styles="false" />
    <inkscape:path-effect
       effect="mirror_symmetry"
       start_point="173.79778,23.280206"
       end_point="173.79778,26.578391"
       center_point="173.79778,24.929299"
       id="path-effect44"
       is_visible="true"
       lpeversion="1.2"
       lpesatellites=""
       mode="free"
       discard_orig_path="false"
       fuse_paths="false"
       oposite_fuse="false"
       split_items="false"
       split_open="false"
       link_styles="false" />
    <inkscape:path-effect
       effect="mirror_symmetry"
       start_point="108.85728,23.109294"
       end_point="108.85728,28.635487"
       center_point="108.85728,25.872391"
       id="path-effect41"
       is_visible="true"
       lpeversion="1.2"
       lpesatellites=""
       mode="free"
       discard_orig_path="false"
       fuse_paths="false"
       oposite_fuse="false"
       split_items="false"
       split_open="false"
       link_styles="false" />
    <inkscape:path-effect
       effect="mirror_symmetry"
       start_point="173.79778,23.280206"
       end_point="173.79778,26.578391"
       center_point="173.79778,24.929299"
       id="path-effect3"
       is_visible="true"
       lpeversion="1.2"
       lpesatellites=""
       mode="free"
       discard_orig_path="false"
       fuse_paths="false"
       oposite_fuse="false"
       split_items="false"
       split_open="false"
       link_styles="false" />
    <inkscape:path-effect
       effect="mirror_symmetry"
       start_point="108.85728,23.109294"
       end_point="108.85728,28.635487"
       center_point="108.85728,25.872391"
       id="path-effect54"
       is_visible="true"
       lpeversion="1.2"
       lpesatellites=""
       mode="free"
       discard_orig_path="false"
       fuse_paths="false"
       oposite_fuse="false"
       split_items="false"
       split_open="false"
       link_styles="false" />
    <inkscape:path-effect
       effect="mirror_symmetry"
       start_point="108.85728,23.109294"
       end_point="108.85728,28.635487"
       center_point="108.85728,25.872391"
       id="path-effect52"
       is_visible="true"
       lpeversion="1.2"
       lpesatellites=""
       mode="free"
       discard_orig_path="false"
       fuse_paths="false"
       oposite_fuse="false"
       split_items="false"
       split_open="false"
       link_styles="false" />
    <inkscape:path-effect
       effect="mirror_symmetry"
       start_point="108.85728,23.109294"
       end_point="108.85728,28.635487"
       center_point="108.85728,25.872391"
       id="path-effect50"
       is_visible="true"
       lpeversion="1.2"
       lpesatellites=""
       mode="free"
       discard_orig_path="false"
       fuse_paths="false"
       oposite_fuse="false"
       split_items="false"
       split_open="false"
       link_styles="false" />
    <inkscape:path-effect
       effect="mirror_symmetry"
       start_point="108.85728,23.109294"
       end_point="108.85728,28.635487"
       center_point="108.85728,25.872391"
       id="path-effect48"
       is_visible="true"
       lpeversion="1.2"
       lpesatellites=""
       mode="free"
       discard_orig_path="false"
       fuse_paths="false"
       oposite_fuse="false"
       split_items="false"
       split_open="false"
       link_styles="false" />
    <inkscape:path-effect
       effect="mirror_symmetry"
       start_point="108.85728,23.109294"
       end_point="108.85728,28.635487"
       center_point="108.85728,25.872391"
       id="path-effect42"
       is_visible="true"
       lpeversion="1.2"
       lpesatellites=""
       mode="free"
       discard_orig_path="false"
       fuse_paths="false"
       oposite_fuse="false"
       split_items="false"
       split_open="false"
       link_styles="false" />
    <inkscape:path-effect
       effect="mirror_symmetry"
       start_point="142.94194,32.856815"
       end_point="142.94194,57.616997"
       center_point="142.94194,45.236906"
       id="path-effect40"
       is_visible="true"
       lpeversion="1.2"
       lpesatellites=""
       mode="free"
       discard_orig_path="false"
       fuse_paths="false"
       oposite_fuse="false"
       split_items="false"
       split_open="false"
       link_styles="false" />
    <inkscape:path-effect
       effect="mirror_symmetry"
       start_point="142.94194,32.856815"
       end_point="142.94194,57.616997"
       center_point="142.94194,45.236906"
       id="path-effect38"
       is_visible="true"
       lpeversion="1.2"
       lpesatellites=""
       mode="free"
       discard_orig_path="false"
       fuse_paths="false"
       oposite_fuse="false"
       split_items="false"
       split_open="false"
       link_styles="false" />
    <inkscape:path-effect
       effect="mirror_symmetry"
       start_point="142.94194,32.856815"
       end_point="142.94194,57.616997"
       center_point="142.94194,45.236906"
       id="path-effect26"
       is_visible="true"
       lpeversion="1.2"
       lpesatellites=""
       mode="free"
       discard_orig_path="false"
       fuse_paths="false"
       oposite_fuse="false"
       split_items="false"
       split_open="false"
       link_styles="false" />
    <inkscape:path-effect
       effect="mirror_symmetry"
       start_point="108.85728,23.109294"
       end_point="108.85728,28.635487"
       center_point="108.85728,25.872391"
       id="path-effect20"
       is_visible="true"
       lpeversion="1.2"
       lpesatellites=""
       mode="free"
       discard_orig_path="false"
       fuse_paths="false"
       oposite_fuse="false"
       split_items="false"
       split_open="false"
       link_styles="false" />
    <inkscape:path-effect
       effect="mirror_symmetry"
       start_point="108.85728,23.109294"
       end_point="108.85728,28.635487"
       center_point="108.85728,25.872391"
       id="path-effect2"
       is_visible="true"
       lpeversion="1.2"
       lpesatellites=""
       mode="free"
       discard_orig_path="false"
       fuse_paths="false"
       oposite_fuse="false"
       split_items="false"
       split_open="false"
       link_styles="false" />
    <inkscape:path-effect
       effect="mirror_symmetry"
       start_point="142.94194,32.856815"
       end_point="142.94194,57.616997"
       center_point="142.94194,45.236906"
       id="path-effect1"
       is_visible="true"
       lpeversion="1.2"
       lpesatellites=""
       mode="free"
       discard_orig_path="false"
       fuse_paths="false"
       oposite_fuse="false"
       split_items="false"
       split_open="false"
       link_styles="false" />
    <inkscape:path-effect
       effect="mirror_symmetry"
       start_point="108.85728,23.109294"
       end_point="108.85728,28.635487"
       center_point="108.85728,25.872391"
       id="path-effect42-7"
       is_visible="true"
       lpeversion="1.2"
       lpesatellites=""
       mode="free"
       discard_orig_path="false"
       fuse_paths="false"
       oposite_fuse="false"
       split_items="false"
       split_open="false"
       link_styles="false" />
    <inkscape:path-effect
       effect="mirror_symmetry"
       start_point="108.85728,23.109294"
       end_point="108.85728,28.635487"
       center_point="108.85728,25.872391"
       id="path-effect42-7-9"
       is_visible="true"
       lpeversion="1.2"
       lpesatellites=""
       mode="free"
       discard_orig_path="false"
       fuse_paths="false"
       oposite_fuse="false"
       split_items="false"
       split_open="false"
       link_styles="false" />
    <inkscape:path-effect
       effect="mirror_symmetry"
       start_point="108.85728,23.109294"
       end_point="108.85728,28.635487"
       center_point="108.85728,25.872391"
       id="path-effect48-1"
       is_visible="true"
       lpeversion="1.2"
       lpesatellites=""
       mode="free"
       discard_orig_path="false"
       fuse_paths="false"
       oposite_fuse="false"
       split_items="false"
       split_open="false"
       link_styles="false" />
    <inkscape:path-effect
       effect="mirror_symmetry"
       start_point="108.85728,23.109294"
       end_point="108.85728,28.635487"
       center_point="108.85728,25.872391"
       id="path-effect50-2"
       is_visible="true"
       lpeversion="1.2"
       lpesatellites=""
       mode="free"
       discard_orig_path="false"
       fuse_paths="false"
       oposite_fuse="false"
       split_items="false"
       split_open="false"
       link_styles="false" />
    <inkscape:path-effect
       effect="mirror_symmetry"
       start_point="108.85728,23.109294"
       end_point="108.85728,28.635487"
       center_point="108.85728,25.872391"
       id="path-effect52-7"
       is_visible="true"
       lpeversion="1.2"
       lpesatellites=""
       mode="free"
       discard_orig_path="false"
       fuse_paths="false"
       oposite_fuse="false"
       split_items="false"
       split_open="false"
       link_styles="false" />
    <inkscape:path-effect
       effect="mirror_symmetry"
       start_point="108.85728,23.109294"
       end_point="108.85728,28.635487"
       center_point="108.85728,25.872391"
       id="path-effect54-0"
       is_visible="true"
       lpeversion="1.2"
       lpesatellites=""
       mode="free"
       discard_orig_path="false"
       fuse_paths="false"
       oposite_fuse="false"
       split_items="false"
       split_open="false"
       link_styles="false" />
  </defs>
  <g
     inkscape:label="Layer 1"
     inkscape:groupmode="layer"
     id="layer1">
    <path
       style="opacity:1;fill:#000000;fill-opacity:0.61000001;stroke:none;stroke-width:0.0286291"
       d="m 24.863274,9.1024116 c 0.05553,-0.0141 0.109133,-0.032826 0.156122,-0.049871 0.188219,-0.068268 0.475254,-0.1814492 0.366289,-0.4791437 -0.04872,-0.1330979 -0.145318,-0.3410418 -0.26407,-0.516698 0.205048,0.054609 0.433695,0.077476 0.575539,0.079803 0.31697,0.00522 0.329281,-0.3032793 0.33198,-0.5034796 0.0027,-0.2001989 -0.0013,-0.5089521 -0.318235,-0.5122901 -0.141454,-0.00151 -0.369816,0.01529 -0.57581,0.064034 C 25.258382,7.0127258 25.360636,6.8079041 25.412964,6.6764931 25.530241,6.3819755 25.246051,6.2608595 25.05982,6.1873374 24.873587,6.1138153 24.583363,6.00804 24.467825,6.3032429 c -0.05223,0.1334389 -0.118238,0.3570343 -0.145069,0.5693719 -0.0046,0.03611 -0.008,0.071996 -0.01036,0.1070381 -0.02061,-0.028 -0.04264,-0.056213 -0.06566,-0.083913 C 24.109899,6.7311692 23.933868,6.5785068 23.818066,6.4941095 23.561875,6.307395 23.374125,6.5526508 23.256677,6.7148073 23.203157,6.7887064 23.13772,6.8818541 23.10674,6.9788953 L 22.755312,6.8381261 C 22.344693,6.6664509 21.935271,6.5207507 21.526659,6.4044318 21.817807,6.3210148 22.155974,6.1464201 22.377884,5.925794 22.872277,5.434258 22.716523,5.0050726 22.554988,4.8425983 22.393455,4.6801246 21.96526,4.5219025 21.470867,5.0134379 21.132753,5.349597 20.899962,5.9566565 20.935293,6.2569887 20.285725,6.1184708 19.638737,6.0595727 18.994317,6.0952279 19.262373,5.9001897 19.54348,5.5966517 19.689739,5.2888232 20.019152,4.5955165 19.6979,4.2086912 19.470062,4.1004344 19.242218,3.9921782 18.739682,3.9875787 18.410264,4.6808891 18.1851,5.1547847 18.169648,5.8697896 18.317764,6.1681126 17.620048,6.2808293 16.925461,6.5112616 16.233911,6.8787401 16.35912,6.5618165 16.439436,6.167603 16.412415,5.8307662 16.345567,4.9973415 15.832138,4.8074131 15.558247,4.8293825 c -0.27389,0.021972 -0.750675,0.2913911 -0.683824,1.1248119 0.04068,0.5071856 0.342489,1.1040728 0.621466,1.370554 -0.380463,0.2580683 -0.760189,0.5599263 -1.138752,0.9088891 -0.06985,0.064316 -0.07424,0.1731098 -0.0098,0.2428434 0.06415,0.069573 0.172497,0.074128 0.242258,0.010187 0.355652,-0.3278429 0.709956,-0.6125519 1.06354,-0.8570426 -0.124372,0.3464404 -0.04311,1.1018076 0.237258,1.5874108 0.339669,0.5883167 0.763337,0.6663263 1.037921,0.6012356 0.06336,-0.015025 0.118704,-0.037538 0.163323,-0.063279 0.237961,-0.1373859 0.552929,-0.58526 0.13488,-1.3093431 C 16.937494,7.9450451 16.294629,7.4843447 15.937799,7.4415133 16.721316,6.9466309 17.502,6.6456104 18.28655,6.5067276 18.138166,6.8251009 18.092581,7.458534 18.24494,7.9130267 c 0.228707,0.6823006 0.682076,0.7738413 0.934932,0.7165596 0.01686,-0.00378 0.03271,-0.00819 0.04767,-0.01322 0.239168,-0.080168 0.604338,-0.4256461 0.36038,-1.153432 -0.13431,-0.4006815 -0.475137,-0.8195976 -0.766604,-1.0259943 0.640399,-0.054546 1.284232,-0.00659 1.935276,0.1267725 -0.199201,0.2553382 -0.381765,0.7569853 -0.369838,1.1669899 0.02027,0.6968655 0.439836,0.8769633 0.668851,0.8703012 0.02862,-8.18e-4 0.06011,-0.00478 0.09315,-0.012326 0.231312,-0.053048 0.541679,-0.2855068 0.523945,-0.8952643 -0.0097,-0.3339167 -0.151826,-0.7211174 -0.319672,-0.9847624 0.420417,0.1177811 0.844262,0.2686239 1.272366,0.4477029 l 0.0014,7.24e-5 1.130665,0.4528313 c -0.0065,0.00233 -0.01294,0.00459 -0.01947,0.00704 -0.200303,0.075415 -0.402041,0.1916103 -0.519712,0.2733914 -0.260317,0.1809119 -0.09035,0.4386599 0.0244,0.6027343 0.114745,0.164075 0.298422,0.4124076 0.557671,0.2299611 0.117184,-0.08247 0.295805,-0.2322502 0.43535,-0.3945332 0.02066,-0.024029 0.0405,-0.048298 0.05932,-0.072617 0.0014,0.030082 0.0036,0.060611 0.0066,0.091472 0.02086,0.2130122 0.08077,0.4384172 0.129261,0.5732592 0.08038,0.2236501 0.265383,0.2246833 0.432198,0.1825139 z m -0.249434,-1.0860283 -2.14e-4,5.72e-5 -4.15e-4,1.108e-4 c -0.0074,0.00164 -0.0148,0.00315 -0.02226,0.00434 -7.55e-4,1.976e-4 -0.0014,3.769e-4 -0.0021,5.694e-4 -10e-4,1.183e-4 -0.0021,2.53e-4 -0.0031,3.838e-4 -0.01418,0.00283 -0.0285,0.00491 -0.04289,0.00623 -0.0079,6.229e-4 -0.01583,0.00113 -0.02377,0.00126 -0.0078,3.247e-4 -0.01557,3.932e-4 -0.02336,2.649e-4 -0.01508,-3.908e-4 -0.0301,-0.00157 -0.04504,-0.00352 -0.0017,-1.73e-4 -0.0033,-2.957e-4 -0.005,-4.964e-4 -0.11478,-0.016064 -0.217474,-0.079758 -0.282866,-0.1754479 l -0.0085,0.00529 0.0078,-0.00617 c -0.01872,-0.027899 -0.03395,-0.057981 -0.04537,-0.089582 -0.0011,-0.00271 -0.0021,-0.00541 -0.0031,-0.00813 l 0.0052,0.00208 c -0.0034,-0.00948 -0.0064,-0.019084 -0.0091,-0.028799 -0.02939,-0.1103999 -0.01158,-0.2280496 0.04915,-0.3248108 l -0.0033,-0.00138 c 0.0047,-0.00731 0.0096,-0.014422 0.01471,-0.021393 l -0.01293,-0.010539 0.01387,0.00892 c 0.04827,-0.06575 0.114984,-0.1156758 0.191676,-0.1434509 0.01104,-0.00359 0.02223,-0.00674 0.03353,-0.00943 0.0017,-6.285e-4 0.0035,-0.00126 0.0052,-0.00182 0.0011,-2.265e-4 0.0021,-4.341e-4 0.0033,-6.292e-4 0.01002,-0.00239 0.02012,-0.0044 0.03028,-0.0061 0.01036,-0.00182 0.02078,-0.00321 0.03124,-0.00428 0.0055,-5.052e-4 0.01109,-9.438e-4 0.01666,-0.00126 0.01667,-0.00101 0.03337,-0.00107 0.05004,-8.75e-5 l 4.71e-4,1.026e-4 2.17e-4,-5.79e-5 c 0.03861,0.00233 0.07671,0.01003 0.113171,0.02296 l 2.14e-4,-5.73e-5 0.0046,-0.010193 -0.0033,0.010759 c 0.126249,0.046089 0.222057,0.1508937 0.256657,0.2807625 0.05843,0.2194804 -0.07191,0.4448187 -0.291299,0.5036023 z"
       id="path7" />
    <path
       style="opacity:1;fill:#000000;fill-opacity:0.61000001;stroke:none;stroke-width:0.0286291"
       d="m 8.7278104,11.542024 c 0.019877,8.81e-4 0.040187,6.93e-4 0.060781,-8.8e-4 0.3637713,-0.02782 0.6836497,-0.220937 0.7324799,-0.56877 0.033216,-0.236609 -0.2245946,-0.6835 -0.2557699,-0.856482 -0.00547,-0.03043 0.00845,-0.04418 0.021299,-0.05258 0.00346,-0.0017 0.00724,-0.0035 0.011313,-0.0047 0.00302,-8.81e-4 0.00635,-0.0014 0.00976,-0.0016 0.010231,-5.15e-4 0.021991,0.0028 0.035273,0.01398 0.1342185,0.113492 0.3925039,0.560201 0.614021,0.649739 0.3256466,0.131629 0.6527176,-0.04892 0.8587006,-0.350045 0.186597,-0.272785 0.03838,-0.638646 0.03838,-0.638646 0,0 0.391005,-0.054496 0.533941,-0.3524865 0.157791,-0.3289471 0.150598,-0.702612 -0.12622,-0.9188155 -0.188302,-0.14707 -0.704397,-0.1472525 -0.869791,-0.2067446 -0.02909,-0.010464 -0.03398,-0.029497 -0.03483,-0.044812 8.81e-4,-0.015321 0.0057,-0.034342 0.03483,-0.044812 0.165394,-0.059492 0.681491,-0.059674 0.869791,-0.2067446 0.276818,-0.2162041 0.284009,-0.589869 0.12622,-0.9188159 -0.142938,-0.297989 -0.533941,-0.3527079 -0.533941,-0.3527079 0,0 0.148221,-0.3656393 -0.03838,-0.6384229 C 10.609687,5.7466256 10.282612,5.5658508 9.9569668,5.6974795 9.7354497,5.7870181 9.4771643,6.233949 9.3429445,6.3474383 c -0.023601,0.019958 -0.04244,0.014692 -0.056125,0.00776 -0.012842,-0.00839 -0.026999,-0.022136 -0.021519,-0.05257 C 9.2964714,6.1296511 9.5542849,5.6825384 9.5210697,5.4459291 9.472237,5.098097 9.1523623,4.9052068 8.7885905,4.8773815 8.459055,4.8521755 8.216272,5.1633192 8.216272,5.1633192 c 0,0 -0.2425616,-0.3111437 -0.5720964,-0.2859377 C 7.280405,4.905205 6.9603025,5.098097 6.9114742,5.4459291 c -0.033216,0.2366093 0.2245939,0.683722 0.2557687,0.8567034 0.00547,0.030429 -0.00845,0.044183 -0.021299,0.05257 -0.013692,0.00693 -0.032738,0.0122 -0.056345,-0.00776 C 6.9553815,6.233949 6.6973164,5.7870181 6.4757986,5.6974795 6.1501523,5.5658508 5.8228586,5.7466268 5.616876,6.047748 5.4302786,6.3205316 5.5785007,6.6861709 5.5785007,6.6861709 c 0,0 -0.3907824,0.054716 -0.5337205,0.3527079 -0.1577904,0.3289475 -0.1505967,0.7026118 0.1262201,0.9188159 0.1883025,0.14707 0.704175,0.1472525 0.86957,0.2067446 0.029082,0.010464 0.034204,0.029497 0.035047,0.044812 -8.809e-4,0.015321 -0.00598,0.034342 -0.035047,0.044812 -0.165395,0.059492 -0.6812675,0.059674 -0.86957,0.2067446 C 4.8941866,8.6770121 4.8869942,9.0506764 5.0447815,9.3796235 5.1877214,9.6776125 5.578502,9.73211 5.578502,9.73211 c 0,0 -0.1482197,0.365861 0.038375,0.638646 0.2059826,0.301122 0.5332775,0.481674 0.8589219,0.350045 0.2215178,-0.08954 0.4795811,-0.536247 0.6138002,-0.649737 0.023608,-0.01996 0.04266,-0.01469 0.056345,-0.0078 0.012842,0.0084 0.026779,0.02214 0.021292,0.05258 -0.031171,0.172983 -0.2889838,0.619873 -0.2557687,0.856483 0.048827,0.347832 0.3689308,0.540944 0.7327014,0.568769 0.3295355,0.02521 0.5720964,-0.285937 0.5720964,-0.285937 0,0 0.2133419,0.273405 0.5115372,0.286825 z M 8.2162732,9.6684563 C 8.0474685,9.6761767 7.7216844,9.5664538 7.4880085,9.4705854 7.2881455,9.3161505 7.0302338,9.0889101 6.9525136,8.9388614 6.8614284,8.7965324 6.7935597,8.4595691 6.7597449,8.2092658 6.7935584,7.9589613 6.8614271,7.622003 6.9525136,7.4796709 7.0302325,7.3296235 7.2881467,7.1021606 7.4880085,6.947725 7.7216831,6.851856 8.0474666,6.7423584 8.2162732,6.7500756 8.3850767,6.7423553 8.7108615,6.8518567 8.9445374,6.947725 9.144401,7.1021606 9.4023133,7.3296216 9.4800329,7.4796709 9.571118,7.6220005 9.6389874,7.9589632 9.6728022,8.2092658 9.6558954,8.3344181 9.630639,8.4812201 9.5980462,8.6145477 9.5654533,8.7478752 9.5255767,8.867695 9.4800329,8.9388614 9.4023145,9.0889088 9.1444004,9.3161505 8.9445374,9.4705854 8.7108621,9.5664544 8.3850786,9.6761735 8.2162732,9.6684563 Z m 0,-0.5896211 C 8.6965168,9.078822 9.0858294,8.6895107 9.0858427,8.2092658 9.0858294,7.7290216 8.6965168,7.3397103 8.2162732,7.3396964 c -0.4802442,1.39e-5 -0.8695568,0.3893252 -0.86957,0.8695694 1.32e-5,0.4802449 0.3893258,0.8695562 0.86957,0.8695694 z"
       id="path1" />
    <path
       style="opacity:1;fill:#000000;fill-opacity:0.61000001;stroke:none;stroke-width:0.0286291"
       d="m 9.1073288,24.880268 c 0.042157,-0.166818 0.041138,-0.351819 -0.1825139,-0.432198 -0.134842,-0.04849 -0.360247,-0.108403 -0.5732592,-0.129261 -0.030869,-0.003 -0.061392,-0.0052 -0.091472,-0.0066 0.024325,-0.01881 0.048587,-0.03865 0.072617,-0.05931 0.162283,-0.139546 0.3120662,-0.318165 0.3945338,-0.43535 0.1824459,-0.259248 -0.065886,-0.442926 -0.2299611,-0.55767 -0.1640743,-0.11475 -0.421823,-0.284716 -0.6027349,-0.0244 -0.081779,0.117672 -0.1979767,0.319409 -0.2733757,0.519716 -0.00245,0.0065 -0.00472,0.01294 -0.00704,0.01947 L 7.1612911,22.644 7.1612187,22.6426 C 6.9821385,22.214515 6.8312963,21.79067 6.7135158,21.370252 c 0.2636444,0.167845 0.6508454,0.309959 0.9847621,0.319672 0.6097582,0.01773 0.8422121,-0.292634 0.8952643,-0.523946 0.00755,-0.03304 0.011489,-0.06453 0.012326,-0.09315 0.00666,-0.229015 -0.1734356,-0.648584 -0.8703018,-0.668851 -0.410004,-0.01192 -0.9116514,0.170638 -1.166989,0.369839 -0.1333621,-0.651043 -0.1813158,-1.294877 -0.1267731,-1.935276 0.2063967,0.291466 0.6253134,0.632292 1.0259946,0.766604 0.7277866,0.243956 1.073263,-0.121212 1.153432,-0.36038 0.00503,-0.01496 0.00943,-0.03081 0.01322,-0.04768 0.057283,-0.252855 -0.03426,-0.706226 -0.7165584,-0.934933 C 7.4633998,18.109793 6.8299658,18.15538 6.511593,18.303771 6.6504752,17.51922 6.9514963,16.738536 7.4463791,15.95502 c 0.04283,0.35683 0.5035305,0.999695 1.0041359,1.288721 0.7240824,0.418047 1.1719571,0.103079 1.3093443,-0.134881 0.025754,-0.04461 0.048267,-0.09996 0.063284,-0.163321 0.065093,-0.274584 -0.012918,-0.698252 -0.6012369,-1.03792 C 8.7363045,15.627257 7.980936,15.54599 7.6344963,15.67036 7.878987,15.316776 8.1636959,14.962473 8.4915395,14.606821 c 0.063945,-0.06976 0.059391,-0.178109 -0.010187,-0.242259 -0.069729,-0.06444 -0.1785222,-0.06006 -0.2428384,0.0098 C 7.8895506,14.752926 7.5876933,15.132652 7.329625,15.513115 7.0631438,15.23413 6.4662566,14.932326 5.959071,14.89164 5.1256495,14.82479 4.8562278,15.301574 4.8342591,15.575465 c -0.021966,0.273891 0.167959,0.78732 1.0013837,0.854167 0.3368374,0.02702 0.7310496,-0.05329 1.0479739,-0.178504 -0.3674791,0.691549 -0.5979108,1.386138 -0.7106275,2.083854 -0.298323,-0.148117 -1.0133279,-0.132665 -1.4872228,0.0925 -0.6933105,0.329417 -0.688711,0.831954 -0.5804561,1.059798 0.1082569,0.22784 0.4950828,0.54909 1.1883895,0.219677 0.3078285,-0.146259 0.6113665,-0.427366 0.8064047,-0.695423 -0.035657,0.64442 0.023243,1.29141 0.1617601,1.940977 -0.3003315,-0.03533 -0.907391,0.19746 -1.2435501,0.535574 -0.4915354,0.494392 -0.3333139,0.922588 -0.1708396,1.084122 0.1624737,0.161534 0.5916597,0.317288 1.0831957,-0.177106 0.2206261,-0.221908 0.3952221,-0.560076 0.4786372,-0.851224 0.1163195,0.408613 0.2620198,0.818035 0.4336949,1.228653 l 0.1407711,0.351427 c -0.097042,0.03098 -0.1901908,0.09641 -0.264088,0.149937 -0.1621527,0.117448 -0.4074123,0.305198 -0.2206979,0.561389 0.084397,0.115802 0.2370604,0.291833 0.40163,0.428673 0.027698,0.02302 0.055917,0.04505 0.083913,0.06566 -0.035041,0.0023 -0.070925,0.0058 -0.1070394,0.01036 -0.212337,0.02683 -0.4359317,0.09284 -0.5693713,0.14507 -0.2952053,0.115536 -0.1894307,0.40576 -0.1159054,0.591995 0.073523,0.186228 0.194638,0.470421 0.4891556,0.353145 0.131411,-0.05233 0.3362328,-0.154584 0.5082736,-0.277876 -0.048745,0.205991 -0.065524,0.434354 -0.064033,0.575809 0.00333,0.316993 0.3120895,0.320934 0.5122891,0.318236 0.200199,-0.0027 0.5086888,-0.01501 0.5034796,-0.331981 -0.00233,-0.141842 -0.025193,-0.370491 -0.079803,-0.575538 0.1756555,0.118753 0.3836007,0.215349 0.5166979,0.26407 0.2976958,0.108963 0.4108711,-0.178072 0.4791438,-0.366289 0.01702,-0.047 0.035796,-0.100585 0.049871,-0.156122 z m -1.0859145,-0.24986 -5.72e-5,2.14e-4 -1.114e-4,4.14e-4 c -0.058787,0.219385 -0.2841225,0.349727 -0.5036016,0.291298 -0.129877,-0.03457 -0.234677,-0.130408 -0.2807626,-0.256657 l -0.010759,0.0033 0.010193,-0.0046 5.73e-5,-2.14e-4 c -0.01293,-0.03646 -0.020657,-0.07456 -0.022953,-0.113169 l 5.78e-5,-2.14e-4 -1.032e-4,-4.72e-4 c -0.00101,-0.01667 -9.438e-4,-0.03338 8.81e-5,-0.05004 3.228e-4,-0.0056 6.922e-4,-0.01112 0.00126,-0.01666 0.00107,-0.01046 0.00245,-0.02088 0.00428,-0.03124 0.0017,-0.01016 0.00365,-0.02028 0.0061,-0.03028 2.145e-4,-0.0011 4.196e-4,-0.0021 6.292e-4,-0.0033 6.002e-4,-0.0017 0.00126,-0.0035 0.00182,-0.0052 0.00264,-0.0113 0.00585,-0.02249 0.00943,-0.03353 0.027773,-0.07669 0.077704,-0.143404 0.1434508,-0.191676 l -0.00892,-0.01387 0.010539,0.01293 c 0.00698,-0.0051 0.014107,-0.01003 0.021393,-0.01471 l 0.00138,0.0033 c 0.096753,-0.06073 0.2144021,-0.07853 0.3248026,-0.04913 0.00971,0.0027 0.019317,0.0057 0.028799,0.0091 l -0.00208,-0.0051 c 0.00271,0.001 0.00541,0.0021 0.00813,0.0031 0.031599,0.0114 0.061681,0.02665 0.089581,0.04536 l 0.00617,-0.0078 -0.00529,0.0085 c 0.095688,0.06539 0.1593862,0.168086 0.1754473,0.282867 1.743e-4,0.0017 3.574e-4,0.0033 4.971e-4,0.005 0.00201,0.01493 0.00321,0.02998 0.00352,0.04504 1.284e-4,0.0078 5.98e-5,0.01558 -2.649e-4,0.02336 -2.34e-4,0.0079 -6.921e-4,0.01585 -0.00126,0.02377 -0.00132,0.0144 -0.0034,0.02871 -0.00623,0.04289 -1.101e-4,10e-4 -2.448e-4,0.0021 -3.826e-4,0.0031 -1.617e-4,6.08e-4 -3.41e-4,0.0013 -5.046e-4,0.0019 -0.00126,0.0075 -0.00271,0.01502 -0.0044,0.02248 z"
       id="path9" />
  </g>
</svg>
